<?xml version="1.0" standalone="no"?>
<!DOCTYPE svg PUBLIC "-//W3C//DTD SVG 1.1//EN" "http://www.w3.org/Graphics/SVG/1.1/DTD/svg11.dtd" >
<svg xmlns="http://www.w3.org/2000/svg">
<metadata>
This is a custom SVG webfont generated by Font Squirrel.
Foundry     : Adobe Systems Incorporated
</metadata>
<defs>
<font id="webfont3e4gWOVV" horiz-adv-x="333" >
<font-face units-per-em="1000" ascent="800" descent="-200" />
<missing-glyph horiz-adv-x="186" />
<glyph unicode=" "  horiz-adv-x="186" />
<glyph unicode="&#x09;" horiz-adv-x="186" />
<glyph unicode="&#xa0;" horiz-adv-x="186" />
<glyph unicode="!" horiz-adv-x="222" d="M58 722h106l-14 -557h-78zM58 100h106v-100h-106v100z" />
<glyph unicode="&#x22;" horiz-adv-x="278" d="M161 722h84v-178h-84v178zM33 722h84v-178h-84v178z" />
<glyph unicode="#" horiz-adv-x="372" d="M229 437h-70l-16 -152h70zM70 219h-66v66h73l16 152h-67v66h74l23 219h66l-23 -219h70l23 219h66l-23 -219h66v-66h-73l-16 -152h67v-66h-74l-23 -219h-66l23 219h-70l-23 -219h-66z" />
<glyph unicode="$" horiz-adv-x="372" d="M155 -6q-29 3 -52 12t-40 25q-36 33 -36 92v86h100v-59q0 -36 14 -57t44 -21q40 0 53 24t13 59q0 23 -2 40t-12.5 36t-32 44t-60.5 64l-46 47q-21 24 -36.5 50t-25 56t-9.5 67q0 78 32 118.5t96 50.5v78h54v-78q63 -6 95.5 -37t32.5 -95v-68h-94v57q0 31 -13.5 48 t-42.5 17q-31 0 -45.5 -18.5t-14.5 -60.5q0 -18 3 -34.5t13.5 -35.5t30.5 -44t55 -61q37 -38 59.5 -65.5t35 -52t17 -49t4.5 -57.5q0 -78 -31 -124t-105 -54v-78h-54v78z" />
<glyph unicode="%" horiz-adv-x="611" d="M102 361q0 -40 29 -40t29 40v273q0 40 -29 40t-29 -40v-273zM388 728h60l-227 -734h-60zM451 88q0 -40 29 -40t29 40v273q0 40 -29 40t-29 -40v-273zM36 649q0 42 27 60.5t68 18.5t68 -18.5t27 -60.5v-303q0 -42 -27 -60.5t-68 -18.5t-68 18.5t-27 60.5v303zM385 376 q0 42 27 60.5t68 18.5t68 -18.5t27 -60.5v-303q0 -42 -27 -60.5t-68 -18.5t-68 18.5t-27 60.5v303z" />
<glyph unicode="&#x26;" horiz-adv-x="407" d="M189 650q-26 0 -35 -19.5t-9 -54.5q0 -14 1 -28t5 -29.5t10 -33.5t17 -41q33 41 43.5 71t10.5 66q0 33 -10.5 51t-32.5 18zM278 214h2v151h84v-145q0 -45 -6 -77.5t-17 -46.5l44 -96h-100l-9 21q-20 -14 -48 -20.5t-53 -6.5q-43 0 -70.5 12.5t-43 36t-21.5 58t-6 78.5 q0 32 2 64t10 60.5t24 51.5t45 37q-26 49 -40 91.5t-14 87.5q0 75 35 113t92 38q69 0 98.5 -37t29.5 -100q0 -65 -26.5 -112t-77.5 -94zM146 317q-11 -15 -14.5 -44t-3.5 -87q0 -62 11 -91t43 -29q18 0 31 6.5t28 23.5z" />
<glyph unicode="'" horiz-adv-x="186" d="M51 722h84v-178h-84v178z" />
<glyph unicode="(" horiz-adv-x="222" d="M149 -156q-20 52 -37 108.5t-30.5 112.5t-21 111.5t-7.5 106.5t7.5 106.5t21 111.5t30.5 112t37 109h66q-11 -31 -22.5 -85.5t-22 -117t-17 -125.5t-6.5 -111t6.5 -111t17 -125.5t22 -117t22.5 -85.5h-66z" />
<glyph unicode=")" horiz-adv-x="222" d="M73 722q19 -53 36.5 -109t31 -112t21 -111.5t7.5 -106.5t-7.5 -106.5t-21 -111.5t-31 -112.5t-36.5 -108.5h-66q10 31 22 85.5t22.5 117t17 125.5t6.5 111t-6.5 111t-17 125.5t-22.5 117t-22 85.5h66z" />
<glyph unicode="*" horiz-adv-x="296" d="M13 626l27 50l87 -59l-4 105h50l-4 -105l87 59l27 -50l-99 -45l99 -45l-27 -50l-87 59l4 -105h-50l4 105l-87 -59l-27 50l99 45z" />
<glyph unicode="+" horiz-adv-x="600" d="M258 211h-211v84h211v211h84v-211h211v-84h-211v-211h-84v211z" />
<glyph unicode="," horiz-adv-x="186" d="M51 118h106l-56 -178h-72z" />
<glyph unicode="-" horiz-adv-x="296" d="M27 292h242v-78h-242v78z" />
<glyph unicode="." horiz-adv-x="186" d="M34 118h118v-118h-118v118z" />
<glyph unicode="/" horiz-adv-x="296" d="M214 728h84l-216 -734h-84z" />
<glyph unicode="0" horiz-adv-x="372" d="M131 156q0 -17 1 -33t6 -29t16 -20.5t32 -7.5t32 7.5t16 20.5t6 29t1 33v410q0 17 -1 33t-6 29t-16 20.5t-32 7.5t-32 -7.5t-16 -20.5t-6 -29t-1 -33v-410zM37 550q0 49 6.5 83t23.5 55t45.5 30.5t73.5 9.5t73.5 -9.5t45.5 -30.5t23.5 -55t6.5 -83v-378q0 -49 -6.5 -83 t-23.5 -55t-45.5 -30.5t-73.5 -9.5t-73.5 9.5t-45.5 30.5t-23.5 55t-6.5 83v378z" />
<glyph unicode="1" horiz-adv-x="372" d="M160 586h-2q-16 -21 -32.5 -37t-45.5 -38v94q9 6 22 21l26 32q14 17 25.5 34.5t16.5 29.5h84v-722h-94v586z" />
<glyph unicode="2" horiz-adv-x="372" d="M34 96l147 272q15 28 25.5 52.5t17.5 48t10 48t3 53.5q0 50 -13 68t-37 18q-29 0 -38.5 -17.5t-9.5 -55.5v-47h-94v56q0 36 6.5 62t22 42.5t42.5 24t69 7.5q43 0 71.5 -8.5t45 -27.5t23 -49.5t6.5 -75.5q0 -30 -1.5 -54.5t-6.5 -47.5t-14 -47t-24 -52l-151 -282h204v-84 h-304v96z" />
<glyph unicode="3" horiz-adv-x="372" d="M37 195h94v-39q0 -43 12 -66.5t43 -23.5t43 23.5t12 66.5v85q0 49 -17 68t-68 19h-25v84h32q22 0 37 3.5t23 13.5t11.5 26.5t3.5 43.5v80q0 47 -13 62t-34 15q-31 0 -43 -23.5t-12 -66.5v-24h-94q0 52 6.5 87.5t23.5 57.5t45.5 31.5t73.5 9.5q44 0 71.5 -10.5t43 -34 t21 -60t5.5 -87.5q0 -47 -3.5 -76.5t-13.5 -47t-27 -26t-44 -13.5v-2q23 -4 40 -11t28.5 -27.5t17 -58t5.5 -102.5q0 -49 -6.5 -83t-23.5 -55t-45.5 -30.5t-73.5 -9.5t-73.5 9.5t-45.5 30.5t-23.5 55t-6.5 83v23z" />
<glyph unicode="4" horiz-adv-x="372" d="M22 258l160 464h124v-474h44v-72h-44v-176h-94v176h-190v82zM212 582h-2l-104 -334h106v334z" />
<glyph unicode="5" horiz-adv-x="372" d="M34 195h94v-64q0 -31 13.5 -48t43.5 -17q22 0 34 10t17.5 25t6.5 33t1 34v154q0 38 -15.5 53.5t-38.5 15.5q-25 0 -40 -19t-15 -56v-29h-94v435h280v-78h-186v-221h2q20 28 41.5 37t48.5 9q20 0 40 -6.5t35.5 -21t25.5 -38.5t10 -58v-206q0 -67 -35.5 -106t-120.5 -39 q-75 0 -111.5 33t-36.5 90v78z" />
<glyph unicode="6" horiz-adv-x="372" d="M332 537h-94v35q0 43 -12 60.5t-42 17.5q-32 0 -44 -23.5t-12 -66.5v-133h2q17 23 39.5 32.5t54.5 9.5q35 0 57 -12.5t35 -35.5t17.5 -55t4.5 -71v-123q0 -49 -6.5 -83t-24.5 -55t-49 -30.5t-80 -9.5q-39 0 -66.5 8t-45 27.5t-25 51t-7.5 79.5v390q0 97 34.5 137.5 t115.5 40.5q80 0 114 -33.5t34 -93.5v-64zM238 324q0 29 -10.5 48t-43.5 19q-29 0 -42.5 -21.5t-13.5 -69.5v-144q0 -18 1 -34.5t6 -28.5t16.5 -19.5t32.5 -7.5q20 0 31 6t16 18t6 28.5t1 37.5v168z" />
<glyph unicode="7" horiz-adv-x="372" d="M244 634h-218v88h312v-92l-148 -630h-104z" />
<glyph unicode="8" horiz-adv-x="372" d="M241 244q0 17 -1 33t-6 29t-16 20.5t-32 7.5t-32 -7.5t-16 -20.5t-6 -29t-1 -33v-88q0 -17 1 -33t6 -29t16 -20.5t32 -7.5t32 7.5t16 20.5t6 29t1 33v88zM235 569q0 15 -1 30t-5.5 26t-14.5 18t-28 7t-28 -7t-14.5 -18t-5.5 -26t-1 -30v-59q0 -24 1 -42t5.5 -30.5 t14.5 -19t28 -6.5t28 6t14.5 15.5t5.5 21.5t1 24v90zM37 232q0 39 4.5 63t14 39t24.5 23t37 14v2q-22 5 -36 14.5t-22.5 25.5t-12 39t-3.5 55v67q0 38 7 67t23.5 48.5t44 29t68.5 9.5t68.5 -9.5t44 -29t23.5 -48.5t7 -67v-67q0 -32 -3.5 -55t-12 -39t-22.5 -25.5t-36 -14.5 v-2q22 -6 37 -14t24.5 -23t14 -39t4.5 -63v-60q0 -49 -6.5 -83t-23.5 -55t-45.5 -30.5t-73.5 -9.5t-73.5 9.5t-45.5 30.5t-23.5 55t-6.5 83v60z" />
<glyph unicode="9" horiz-adv-x="372" d="M40 185h94v-35q0 -43 12 -60.5t42 -17.5q32 0 44 23.5t12 66.5v133h-2q-17 -23 -39.5 -32.5t-54.5 -9.5q-35 0 -57 12.5t-35 35.5t-17.5 55t-4.5 71v123q0 49 6.5 83t24.5 55t49 30.5t80 9.5q39 0 66.5 -8t45 -27.5t25 -51t7.5 -79.5v-390q0 -49 -8.5 -83t-26.5 -55 t-46.5 -30.5t-68.5 -9.5q-80 0 -114 33.5t-34 93.5v64zM134 398q0 -29 10.5 -48t43.5 -19q29 0 42.5 21.5t13.5 69.5v144q0 18 -1 34.5t-6 28.5t-16.5 19.5t-32.5 7.5q-20 0 -31 -6t-16 -18t-6 -28.5t-1 -37.5v-168z" />
<glyph unicode=":" horiz-adv-x="186" d="M34 118h118v-118h-118v118zM34 502h118v-118h-118v118z" />
<glyph unicode=";" horiz-adv-x="186" d="M51 118h106l-56 -178h-72zM34 502h118v-118h-118v118z" />
<glyph unicode="&#x3c;" horiz-adv-x="600" d="M47 289l506 223v-84l-403 -175l403 -175v-84l-506 223v72z" />
<glyph unicode="=" horiz-adv-x="600" d="M47 399h506v-84h-506v84zM47 191h506v-84h-506v84z" />
<glyph unicode="&#x3e;" horiz-adv-x="600" d="M47 78l403 175l-403 175v84l506 -223v-72l-506 -223v84z" />
<glyph unicode="?" horiz-adv-x="315" d="M115 283q0 25 2 44.5t6 38.5t11 39.5t18 46.5l21 48l11 30q5 11 7 22t2.5 23.5t0.5 31.5q0 29 -7 42t-28 13q-19 0 -26 -14t-7 -35v-64h-94v64q0 65 32.5 90t94.5 25q74 0 101.5 -32.5t27.5 -103.5q0 -28 -2 -47t-5 -33.5t-7.5 -26t-10.5 -23.5l-31 -62 q-11 -21 -18 -38.5t-12 -35t-7 -37t-2 -44.5v-82h-78v120zM101 100h106v-100h-106v100z" />
<glyph unicode="@" horiz-adv-x="800" d="M502 401q0 19 -6.5 35.5t-18 29.5t-26.5 20.5t-33 7.5q-30 0 -56.5 -17t-46 -43.5t-30.5 -58.5t-11 -63q0 -41 21.5 -68.5t63.5 -27.5q31 0 57 18.5t45 46t30 60t11 60.5zM33 362q0 77 30 143.5t82 116t121.5 78t149.5 28.5q70 0 133.5 -22t112 -62t77 -95.5t28.5 -122.5 q0 -69 -26.5 -122t-64.5 -88.5t-79.5 -53.5t-71.5 -18q-59 0 -68 57h-2q-21 -25 -52.5 -41t-69.5 -16q-33 0 -58.5 12.5t-43 34.5t-26.5 51t-9 62q0 48 16 95t45 84t69.5 60t88.5 23q38 0 67.5 -17t48.5 -56l20 58h72l-77 -265l-6 -25q-4 -13 -4 -24q0 -9 6 -15t18 -6 q21 0 43.5 16.5t41.5 44t31.5 63t12.5 74.5q0 55 -22.5 99.5t-60 76t-87 49t-103.5 17.5q-68 0 -124 -24t-96 -65t-62.5 -95t-22.5 -114t24 -113.5t66 -93t99.5 -62.5t123.5 -23q34 0 67.5 7.5t63.5 20.5t54.5 30t41.5 36h84q-51 -79 -134 -122.5t-181 -43.5 q-82 0 -152.5 28.5t-122.5 78t-82 116.5t-30 145z" />
<glyph unicode="A" horiz-adv-x="444" d="M170 722h116l147 -722h-100l-33 184h-156l-33 -184h-100zM159 268h127l-62 348h-2z" />
<glyph unicode="B" horiz-adv-x="389" d="M37 722h174q46 0 74.5 -9t44 -29t20.5 -54t5 -83q0 -53 -4.5 -85.5t-15.5 -51t-28.5 -26.5t-42.5 -11v-2q30 -6 48.5 -15t29 -27t14.5 -47.5t4 -75.5q0 -59 -5.5 -98.5t-23 -63.5t-50 -34t-87.5 -10h-157v722zM137 78h62q21 0 34.5 4.5t20.5 18.5t9.5 39.5t2.5 68.5 q0 41 -2.5 65.5t-9 38t-19 17.5t-33.5 4h-65v-256zM137 412h58q22 0 35.5 3.5t20 17t8.5 39.5t2 70q0 31 -3 50.5t-11.5 31t-23.5 16t-39 4.5h-47v-232z" />
<glyph unicode="C" horiz-adv-x="352" d="M26 538q0 38 7.5 72.5t26 60.5t51.5 41.5t84 15.5q75 0 110 -35t35 -96v-72h-94v50q0 35 -13 55t-45 20q-39 0 -50.5 -29t-11.5 -95v-354q0 -32 4.5 -51.5t13 -30.5t19 -14.5t22.5 -3.5q28 0 44.5 20.5t16.5 65.5v50h94v-80q0 -29 -6.5 -53.5t-23.5 -42.5t-45.5 -28 t-71.5 -10q-47 0 -79 12t-51.5 35.5t-28 56.5t-8.5 75v365z" />
<glyph unicode="D" horiz-adv-x="407" d="M137 84h48q28 0 45 8t26.5 27t13 50t3.5 78v248q0 40 -3 67.5t-13 44t-29 24t-51 7.5h-40v-554zM37 722h161q61 0 96 -11.5t52.5 -41.5t22 -81t4.5 -130v-215q0 -69 -7.5 -116t-28.5 -75t-58.5 -40t-96.5 -12h-145v722z" />
<glyph unicode="E" horiz-adv-x="315" d="M37 722h272v-84h-172v-226h162v-84h-162v-244h172v-84h-272v722z" />
<glyph unicode="F" horiz-adv-x="315" d="M37 722h272v-84h-172v-226h162v-84h-162v-328h-100v722z" />
<glyph unicode="G" horiz-adv-x="407" d="M270 531v37q0 38 -17.5 60t-46.5 22q-35 0 -52 -30.5t-17 -88.5v-364q0 -44 19 -69.5t50 -25.5q21 0 37.5 2.5t26.5 4.5v212h-66v84h166v-363q-15 -3 -34.5 -6.5t-41.5 -6t-45 -4t-44 -1.5q-48 0 -80 12t-51.5 35.5t-28 56.5t-8.5 75v365q0 51 8.5 87t28 59t52.5 33.5 t81 10.5q81 0 122 -31t41 -100v-66h-100z" />
<glyph unicode="H" horiz-adv-x="407" d="M37 722h100v-310h133v310h100v-722h-100v328h-133v-328h-100v722z" />
<glyph unicode="I" horiz-adv-x="168" d="M34 722h100v-722h-100v722z" />
<glyph unicode="J" horiz-adv-x="315" d="M8 211h94v-71q0 -11 1 -23t5 -22t11.5 -16.5t20.5 -6.5q14 0 22 6t12.5 16t5.5 23t1 27v578h100v-589q0 -66 -33 -102.5t-108 -36.5q-31 0 -55.5 5.5t-41.5 19.5t-26 38t-9 61v93z" />
<glyph unicode="K" horiz-adv-x="407" d="M37 722h100v-329h2l158 329h100l-168 -339l180 -383h-112l-158 361h-2v-361h-100v722z" />
<glyph unicode="L" horiz-adv-x="315" d="M37 722h100v-638h168v-84h-268v722z" />
<glyph unicode="M" horiz-adv-x="574" d="M37 722h159l92 -550h2l92 550h155v-722h-94v650h-2l-102 -650h-100l-112 650h-2v-650h-88v722z" />
<glyph unicode="N" horiz-adv-x="426" d="M37 722h138l118 -600h2v600h94v-722h-144l-118 616h-2v-616h-88v722z" />
<glyph unicode="O" horiz-adv-x="407" d="M134 167q0 -47 19 -71t50 -24q32 0 51 24t19 71v379q0 104 -70 104q-69 0 -69 -104v-379zM34 538q0 38 7.5 72.5t26 60.5t51.5 41.5t84 15.5q48 0 81 -12t52.5 -35.5t28 -56.5t8.5 -75v-365q0 -38 -7.5 -72.5t-26.5 -60.5t-52 -41.5t-84 -15.5q-48 0 -80.5 12t-52 35.5 t-28 56.5t-8.5 75v365z" />
<glyph unicode="P" horiz-adv-x="389" d="M137 398h52q25 0 40 3.5t23 15.5t10 36t2 65t-2 65t-10 36t-23 15.5t-40 3.5h-52v-240zM37 722h165q51 0 82.5 -8.5t49.5 -31t24 -62t6 -102.5t-6 -102.5t-24 -62t-49.5 -31t-82.5 -8.5h-65v-314h-100v722z" />
<glyph unicode="Q" horiz-adv-x="426" d="M134 167q0 -47 19 -71t50 -24q32 0 51 24t19 71v379q0 104 -70 104q-69 0 -69 -104v-379zM34 538q0 38 7.5 72.5t26 60.5t51.5 41.5t84 15.5q48 0 81 -12t52.5 -35.5t28 -56.5t8.5 -75v-341q0 -45 -11.5 -85t-30.5 -61l2 -2q14 7 38 9.5t56 2.5v-72q-28 0 -61 -1l-62 -2 q-31 -1 -58 -2t-43 -1q-48 0 -80.5 12t-52 35.5t-28 56.5t-8.5 75v365z" />
<glyph unicode="R" horiz-adv-x="389" d="M37 722h155q55 0 87 -8.5t48.5 -30.5t21 -60.5t4.5 -97.5q0 -36 -3.5 -63t-13.5 -46t-28.5 -32.5t-49.5 -22.5v-2q51 -5 71 -32t20 -78v-157q0 -20 0.5 -44.5t5.5 -47.5h-94q-8 14 -10 28.5t-2 36.5v163q0 25 -3 42t-11.5 26.5t-23.5 13.5t-40 4h-34v-314h-100v722z M137 398h26q30 0 47.5 4t27 17t12.5 37t3 65q0 40 -2 63.5t-9 35.5t-20.5 15t-36.5 3h-48v-240z" />
<glyph unicode="S" horiz-adv-x="370" d="M26 209h100v-59q0 -36 14 -57t44 -21q40 0 53 24t13 59q0 23 -2 40t-12.5 36t-32 44t-60.5 64l-45 47q-22 24 -37.5 50t-25 56t-9.5 67q0 89 41 129t123 40q41 0 70 -11.5t47 -28.5q13 -12 21 -33t8 -59v-68h-94v57q0 31 -13.5 48t-42.5 17q-31 0 -45.5 -18.5 t-14.5 -60.5q0 -18 3 -34.5t13.5 -35.5t30.5 -44t55 -61q37 -38 59.5 -65.5t35 -52t17 -49t4.5 -57.5q0 -85 -37 -131.5t-126 -46.5q-69 0 -112 30.5t-43 98.5v86z" />
<glyph unicode="T" horiz-adv-x="352" d="M6 722h340v-84h-120v-638h-100v638h-120v84z" />
<glyph unicode="U" horiz-adv-x="407" d="M373 163q0 -32 -7.5 -62t-26 -54t-51.5 -38.5t-84 -14.5t-84 14.5t-52 38.5t-26.5 54t-7.5 62v559h100v-576q0 -37 15.5 -55.5t54.5 -18.5q38 0 53.5 18.5t15.5 55.5v576h100v-559z" />
<glyph unicode="V" horiz-adv-x="426" d="M8 722h100l104 -574h2l104 574h100l-147 -722h-116z" />
<glyph unicode="W" horiz-adv-x="667" d="M13 722h103l72 -594h2l80 594h136l66 -594h2l86 594h94l-130 -722h-122l-67 604h-2l-85 -604h-121z" />
<glyph unicode="X" horiz-adv-x="426" d="M164 375l-145 347h106l94 -254l94 254h100l-144 -357l149 -365h-106l-98 265l-106 -265h-100z" />
<glyph unicode="Y" horiz-adv-x="407" d="M15 722h100l87 -304h2l100 304h88l-139 -426v-296h-100v296z" />
<glyph unicode="Z" horiz-adv-x="352" d="M11 91l225 547h-197v84h297v-84l-225 -554h230v-84h-330v91z" />
<glyph unicode="[" horiz-adv-x="222" d="M57 722h158v-72h-74v-734h74v-72h-158v878z" />
<glyph unicode="\" horiz-adv-x="296" d="M298 -6h-84l-216 734h84z" />
<glyph unicode="]" horiz-adv-x="222" d="M7 -84h74v734h-74v72h158v-878h-158v72z" />
<glyph unicode="^" horiz-adv-x="600" d="M261 722h78l204 -414h-84l-159 330l-159 -330h-84z" />
<glyph unicode="_" horiz-adv-x="500" d="M0 -75h500v-50h-500v50z" />
<glyph unicode="`" horiz-adv-x="168" d="M-36 742h100l69 -145h-60z" />
<glyph unicode="a" d="M32 399q0 109 134 109q65 0 99 -28t34 -94v-386h-88v52q-8 -8 -13.5 -15.5t-13.5 -15.5q-13 -13 -31 -20t-36 -7q-21 0 -38 4.5t-29 19t-18.5 41.5t-6.5 72q0 38 1.5 62.5t5.5 41t10.5 27t16.5 20.5q8 9 17 14.5t24 9.5t39.5 5.5t65.5 1.5v81q0 22 -7.5 35t-31.5 13 q-20 0 -30 -9.5t-10 -32.5v-46h-94v45zM175 247q-33 0 -44.5 -22t-11.5 -81q0 -28 1.5 -44.5t5.5 -25.5t11.5 -11.5t18.5 -2.5q24 0 36.5 16t12.5 42v129h-30z" />
<glyph unicode="b" d="M206 374q0 41 -10 54.5t-26 13.5q-20 0 -31.5 -17.5t-11.5 -64.5v-253q0 -28 12 -40.5t26 -12.5q19 0 30 14t11 58v248zM33 722h94v-256h2q12 21 36 32q11 5 23.5 7.5t23.5 2.5q42 0 65 -30t23 -86v-282q0 -56 -23 -86t-65 -30q-29 0 -52 12t-37 30h-2v-36h-88v722z" />
<glyph unicode="c" horiz-adv-x="296" d="M21 373q0 64 34.5 99.5t97.5 35.5q64 0 93 -28t29 -72v-75h-88v55q0 29 -9.5 41.5t-26.5 12.5t-26.5 -15t-9.5 -44v-276q0 -47 36 -47t36 49v60h88v-76q0 -29 -11 -48t-28 -30t-38.5 -16t-43.5 -5q-27 0 -51 6.5t-42 21t-29 38.5t-11 59v254z" />
<glyph unicode="d" d="M127 126q0 -44 11 -58t30 -14q14 0 26 12.5t12 40.5v253q0 47 -11.5 64.5t-31.5 17.5q-16 0 -26 -13.5t-10 -54.5v-248zM33 392q0 56 23 86t65 30q11 0 23.5 -2.5t23.5 -7.5q24 -11 36 -32h2v256h94v-722h-88v36h-2q-16 -20 -40 -31t-49 -11q-42 0 -65 30t-23 86v282z " />
<glyph unicode="e" d="M30 373q0 64 35 99.5t101 35.5q28 0 53 -6.5t43.5 -21t29.5 -38.5t11 -59v-162h-179v-107q0 -35 11.5 -47.5t34.5 -12.5q26 0 35.5 17.5t9.5 47.5v46h88v-71q0 -19 -7.5 -37t-24 -32t-43 -22.5t-65.5 -8.5q-27 0 -51 6.5t-42 21t-29 38.5t-11 59v254zM124 287h91v98 q0 34 -10.5 48.5t-34.5 14.5q-26 0 -36 -14t-10 -41v-106z" />
<glyph unicode="f" horiz-adv-x="204" d="M52 436h-47v66h47v118q0 27 4.5 46t18 31.5t36.5 18.5t61 6h32v-72h-17q-41 0 -41 -43v-105h58v-66h-58v-436h-94v436z" />
<glyph unicode="g" d="M42 -46h94v-39q0 -22 7.5 -32.5t27.5 -10.5q18 0 26.5 12.5t8.5 44.5v125h-2q-14 -23 -34.5 -32.5t-48.5 -9.5q-42 0 -65 30t-23 86v264q0 56 23 86t65 30q32 0 51 -11.5t38 -39.5h2v45h88v-551q0 -67 -33 -103t-102 -36q-26 0 -48 5t-39 17t-26.5 31t-9.5 47v42z M127 150q0 -44 11 -58t30 -14q14 0 26 12.5t12 40.5v258q0 53 -42 53q-17 0 -27 -10t-10 -42v-240z" />
<glyph unicode="h" d="M34 722h94v-262h2q10 23 33 36q22 12 48 12q18 0 34 -5t28 -16.5t19 -30.5t7 -47v-409h-94v391q0 20 -7 32.5t-29 12.5q-17 0 -29 -12t-12 -41v-383h-94v722z" />
<glyph unicode="i" horiz-adv-x="168" d="M37 502h94v-502h-94v502zM37 722h94v-100h-94v100z" />
<glyph unicode="j" horiz-adv-x="168" d="M37 502h94v-594q0 -26 -5.5 -44t-21.5 -29.5t-43.5 -17t-72.5 -5.5v72q29 1 39 8.5t10 33.5v576zM37 722h94v-100h-94v100z" />
<glyph unicode="k" horiz-adv-x="315" d="M34 722h94v-433h2l85 213h88l-91 -225l103 -277h-100l-85 258h-2v-258h-94v722z" />
<glyph unicode="l" horiz-adv-x="168" d="M37 722h94v-722h-94v722z" />
<glyph unicode="m" horiz-adv-x="520" d="M42 502h88v-42h2q11 20 35.5 34t53.5 14q24 0 45.5 -12t36.5 -36q11 19 31 33.5t52 14.5q19 0 36 -5t29.5 -16.5t19.5 -30.5t7 -47v-409h-94v391q0 20 -7 32.5t-29 12.5q-17 0 -29 -12t-12 -41v-383h-94v391q0 20 -7 32.5t-29 12.5q-17 0 -29 -12t-12 -41v-383h-94v502z " />
<glyph unicode="n" d="M34 502h88v-42h2q14 23 36 35q22 13 51 13q18 0 34 -5t28 -16.5t19 -30.5t7 -47v-409h-94v391q0 20 -7 32.5t-29 12.5q-17 0 -29 -12t-12 -41v-383h-94v502z" />
<glyph unicode="o" d="M33 373q0 64 35 99.5t98 35.5q27 0 51.5 -6.5t42.5 -21t29 -38.5t11 -59v-254q0 -64 -35 -99.5t-98 -35.5q-27 0 -51.5 6.5t-42.5 21t-29 38.5t-11 59v254zM127 123q0 -30 8.5 -46.5t31.5 -16.5q22 0 30.5 16.5t8.5 46.5v256q0 30 -8.5 46.5t-30.5 16.5 q-23 0 -31.5 -16.5t-8.5 -46.5v-256z" />
<glyph unicode="p" d="M33 502h88v-56h2q10 26 31.5 44t57.5 18q42 0 65 -30t23 -86v-282q0 -56 -23 -86t-65 -30q-26 0 -49 10t-36 24v-210h-94v684zM127 113q0 -28 12 -40.5t26 -12.5q19 0 30 14t11 58v236q0 41 -10 54.5t-26 13.5q-20 0 -31.5 -17.5t-11.5 -64.5v-241z" />
<glyph unicode="q" d="M33 392q0 56 23 86t65 30q36 0 57.5 -18t31.5 -44h2v56h88v-684h-94v210q-13 -14 -36 -24t-49 -10q-42 0 -65 30t-23 86v282zM127 132q0 -44 11 -58t30 -14q14 0 26 12.5t12 40.5v241q0 47 -11.5 64.5t-31.5 17.5q-16 0 -26 -13.5t-10 -54.5v-236z" />
<glyph unicode="r" horiz-adv-x="204" d="M34 502h88v-52h2q8 18 16 29t17 17.5t21.5 9t29.5 2.5v-94q-35 0 -57.5 -13t-22.5 -52v-349h-94v502z" />
<glyph unicode="s" horiz-adv-x="296" d="M182 340v48q0 29 -7 41.5t-26 12.5t-25.5 -10t-6.5 -36q0 -19 1.5 -31t8.5 -22.5t20 -22.5l37 -33q27 -24 44 -41.5t26.5 -34t13 -36t3.5 -46.5q0 -37 -7 -62.5t-22.5 -41.5t-41.5 -23.5t-63 -7.5q-54 0 -83 24t-29 79v71h88v-69q0 -23 9 -31t26 -8q23 0 29 13t6 43 q0 20 -1.5 33t-7 24t-17 22.5t-31.5 28.5l-21 18q-28 24 -43.5 39.5t-22.5 29.5t-8.5 30t-1.5 42q0 71 33.5 98t96.5 27q107 0 107 -91v-77h-84z" />
<glyph unicode="t" horiz-adv-x="204" d="M52 436h-47v66h47v95l94 33v-128h58v-66h-58v-325q0 -29 12 -37t33 -8q15 0 24 3v-66q-8 -1 -24.5 -2t-36.5 -1q-57 0 -79.5 16.5t-22.5 50.5v369z" />
<glyph unicode="u" d="M299 0h-88v42h-2q-14 -23 -36 -35q-22 -13 -51 -13q-18 0 -34 5t-28 16.5t-19 30.5t-7 47v409h94v-391q0 -20 7 -32.5t29 -12.5q17 0 29 12t12 41v383h94v-502z" />
<glyph unicode="v" d="M5 502h97l65 -408h2l65 408h94l-112 -502h-110z" />
<glyph unicode="w" horiz-adv-x="537" d="M8 502h100l49 -390h2l59 390h107l56 -390h2l52 390h94l-100 -502h-107l-50 390h-2l-68 -390h-103z" />
<glyph unicode="x" horiz-adv-x="315" d="M106 265l-97 237h104l49 -154h2l57 154h88l-99 -249l107 -253h-103l-60 177h-2l-60 -177h-94z" />
<glyph unicode="y" d="M6 502h100l62 -363h2l63 363h94l-163 -684h-88l44 189z" />
<glyph unicode="z" horiz-adv-x="241" d="M11 91l131 339h-131v72h219v-82l-135 -348h135v-72h-219v91z" />
<glyph unicode="{" horiz-adv-x="222" d="M-2 316q34 1 46.5 31.5t12.5 81.5v166q0 31 9 55t24.5 40t36 24t42.5 8h35v-72h-20q-26 0 -34.5 -22.5t-8.5 -51.5v-162q0 -34 -10.5 -58t-24.5 -39.5t-29.5 -23.5t-24.5 -10v-2q9 -2 24.5 -9.5t29.5 -22.5t24.5 -39t10.5 -58v-162q0 -29 8.5 -51.5t34.5 -22.5h20v-72 h-35q-22 0 -42.5 8t-36 24t-24.5 40t-9 55v166q0 51 -12.5 81.5t-46.5 31.5v66z" />
<glyph unicode="|" horiz-adv-x="222" d="M69 728h84v-734h-84v734z" />
<glyph unicode="}" horiz-adv-x="222" d="M224 250q-34 -1 -46.5 -31.5t-12.5 -81.5v-166q0 -31 -9 -55t-24.5 -40t-36 -24t-42.5 -8h-35v72h20q26 0 34.5 22.5t8.5 51.5v162q0 34 10.5 58t24.5 39.5t29.5 23.5t24.5 10v2q-9 2 -24.5 9.5t-29.5 22.5t-24.5 39t-10.5 58v162q0 29 -8.5 51.5t-34.5 22.5h-20v72h35 q22 0 42.5 -8t36 -24t24.5 -40t9 -55v-166q0 -51 12.5 -81.5t46.5 -31.5v-66z" />
<glyph unicode="~" horiz-adv-x="600" d="M63 245q30 49 62.5 67.5t68.5 18.5q29 0 58.5 -10.5t57.5 -26.5q27 -16 53 -25.5t44 -9.5q44 0 88 77l42 -75q-30 -49 -62.5 -67.5t-68.5 -18.5q-29 0 -59 11t-57 25q-29 15 -54 25.5t-43 10.5q-44 0 -88 -77z" />
<glyph unicode="&#xa1;" horiz-adv-x="222" d="M72 375h78l14 -557h-106zM58 540h106v-100h-106v100z" />
<glyph unicode="&#xa2;" horiz-adv-x="372" d="M163 -6q-22 4 -41 12.5t-33 23.5t-22 37t-8 52v254q0 57 27 91.5t77 43.5v69h46v-69q53 -4 79 -32q25 -25 25 -68v-75h-88v55q0 29 -9.5 41.5t-26.5 12.5t-26.5 -15t-9.5 -44v-276q0 -47 36 -47t36 49v60h88v-76q0 -26 -9 -43.5t-23.5 -29.5t-33 -18t-38.5 -8v-81h-46v81 z" />
<glyph unicode="&#xa3;" horiz-adv-x="372" d="M9 78h45v275h-45v66h45l4 142q5 167 172 167q81 0 120.5 -38t39.5 -103v-61h-88v48q0 35 -18 55.5t-53 20.5q-38 0 -60.5 -22t-22.5 -65v-144h110v-66h-110v-275h234v-78h-373v78z" />
<glyph unicode="&#xa4;" horiz-adv-x="372" d="M189 516q26 0 49.5 -8.5t42.5 -22.5l34 33l28 -28l-33 -34q14 -19 22.5 -42.5t8.5 -52.5q0 -28 -8.5 -52t-22.5 -42l33 -35l-28 -28l-35 34q-18 -15 -41.5 -23.5t-49.5 -8.5q-30 0 -54.5 8.5t-43.5 22.5l-34 -33l-28 28l33 34q-14 19 -22.5 42.5t-8.5 52.5t8.5 52.5 t22.5 42.5l-33 34l28 28l34 -33q20 14 44 22.5t54 8.5zM91 361q0 -20 7.5 -37t20.5 -30t30 -20.5t37 -7.5q19 0 36.5 7.5t30.5 20.5t20.5 30t7.5 37q0 19 -7.5 36.5t-20.5 30.5t-30.5 20.5t-36.5 7.5q-20 0 -37 -7.5t-30 -20.5t-20.5 -30.5t-7.5 -36.5z" />
<glyph unicode="&#xa5;" horiz-adv-x="372" d="M139 149h-103v66h103v86h-103v66h82l-103 355h88l82 -304h2l92 304h78l-105 -355h84v-66h-103v-86h103v-66h-103v-149h-94v149z" />
<glyph unicode="&#xa6;" horiz-adv-x="222" d="M69 268h84v-274h-84v274zM69 728h84v-274h-84v274z" />
<glyph unicode="&#xa7;" horiz-adv-x="296" d="M259 656q-29 3 -47 4.5t-38 1.5q-32 0 -48.5 -12t-16.5 -43q0 -26 12 -41.5t30.5 -28t39.5 -24t39.5 -29.5t30.5 -44.5t12 -68.5q0 -29 -6.5 -49.5t-16 -33.5t-21.5 -20t-24 -9v-2q29 -14 49.5 -48t20.5 -81q0 -66 -36.5 -100t-119.5 -34q-14 0 -29 0.5t-28.5 1.5t-24 2 t-16.5 2v66q14 -2 35.5 -4t44.5 -2q43 0 64.5 13t21.5 50q0 27 -12.5 45.5t-30.5 33.5t-40 29t-40 32t-30.5 42.5t-12.5 60.5q0 38 10 65t45 49q-26 19 -40.5 47t-14.5 76q0 37 10 61t29 38.5t45 20t59 5.5q22 0 43.5 -1.5t51.5 -4.5v-66zM105 380q0 -28 10 -44t38 -35 q20 15 28 27.5t8 35.5q0 28 -14 47t-37 30q-14 -10 -23.5 -24.5t-9.5 -36.5z" />
<glyph unicode="&#xa8;" horiz-adv-x="168" d="M-32 722h78v-100h-78v100zM122 722h78v-100h-78v100z" />
<glyph unicode="&#xa9;" horiz-adv-x="800" d="M111 361q0 -62 22 -115.5t61 -93.5t91.5 -63t114.5 -23q61 0 113.5 23t91.5 63t61.5 93.5t22.5 115.5q0 61 -22.5 115t-61.5 94t-91.5 63t-113.5 23q-62 0 -114.5 -23t-91.5 -63t-61 -94t-22 -115zM587 296q-13 -75 -62.5 -115.5t-116.5 -40.5q-47 0 -85 17t-65 46.5 t-42 70t-15 87.5q0 48 14 88.5t41 70t65.5 46t86.5 16.5q65 0 113.5 -39t59.5 -113h-78q-8 38 -35 59t-68 21q-60 0 -90.5 -41.5t-30.5 -107.5q0 -64 33 -106.5t92 -42.5q40 0 67 21t32 63h84zM33 361q0 76 29 142.5t79 116.5t116.5 79t142.5 29t142.5 -29t116.5 -79 t79 -116.5t29 -142.5t-29 -142.5t-79 -116.5t-116.5 -79t-142.5 -29t-142.5 29t-116.5 79t-79 116.5t-29 142.5z" />
<glyph unicode="&#xaa;" horiz-adv-x="216" d="M199 431h-60v29q-5 -4 -8.5 -8t-8.5 -9q-19 -16 -44 -16q-14 0 -25 3t-19 11t-12.5 23.5t-4.5 41.5q0 24 1 39.5t3.5 25.5t7 16t10.5 12q6 5 11.5 8.5t15 5.5t25.5 3t42 1v32q0 15 -5 24t-18 9q-12 0 -17 -9t-5 -24v-13h-66v26q0 35 21.5 50.5t65.5 15.5q38 0 64 -16 t26 -59v-222zM116 571q-19 0 -26 -11.5t-7 -42.5q0 -29 4.5 -36.5t15.5 -7.5q14 0 22 9t8 24v66v-1h-17z" />
<glyph unicode="&#xab;" d="M101 451h72l-58 -198l58 -198h-72l-80 198zM240 451h72l-58 -198l58 -198h-72l-80 198z" />
<glyph unicode="&#xac;" horiz-adv-x="600" d="M469 315h-422v84h506v-292h-84v208z" />
<glyph unicode="&#xad;" horiz-adv-x="296" d="M27 292h242v-78h-242v78z" />
<glyph unicode="&#xae;" horiz-adv-x="800" d="M33 361q0 76 29 143t79 116.5t116.5 78.5t142.5 29t143 -29t116.5 -78.5t78.5 -116.5t29 -143t-29 -142.5t-78.5 -116.5t-116.5 -79t-143 -29t-142.5 29t-116.5 79t-79 116.5t-29 142.5zM111 361q0 -62 22 -116t61 -93.5t91.5 -62.5t114.5 -23q61 0 113.5 23t91.5 62.5 t61.5 93.5t22.5 116t-22.5 116t-61.5 93.5t-91.5 62.5t-113.5 23q-62 0 -114.5 -23t-91.5 -62.5t-61 -93.5t-22 -116zM378 333h-66v-181h-72v419h165q78 0 118 -28t40 -93q0 -29 -8.5 -49t-23 -33.5t-34 -20t-41.5 -7.5l113 -188h-81zM387 393q19 0 37 1.5t31.5 8t21.5 19 t8 34.5q0 18 -9 29t-22.5 16.5t-29.5 7.5t-31 2h-81v-118h75z" />
<glyph unicode="&#xaf;" horiz-adv-x="168" d="M-48 697h264v-54h-264v54z" />
<glyph unicode="&#xb0;" horiz-adv-x="400" d="M50 578q0 31 12 58.5t32 47.5t47.5 32t58.5 12t58.5 -12t47.5 -32t32 -47.5t12 -58.5t-12 -58.5t-32 -47.5t-47.5 -32t-58.5 -12t-58.5 12t-47.5 32t-32 47.5t-12 58.5zM110 578q0 -38 26 -64t64 -26t64 26t26 64t-26 64t-64 26t-64 -26t-26 -64z" />
<glyph unicode="&#xb1;" horiz-adv-x="600" d="M258 506h84v-152h211v-84h-211v-152h-84v152h-211v84h211v152zM47 84h506v-84h-506v84z" />
<glyph unicode="&#xb2;" horiz-adv-x="240" d="M96 351h128v-60h-209v60q31 48 53 87l43 74q10 18 17 32.5t11.5 28t6 28t1.5 33.5q0 44 -25 44q-13 0 -19 -13t-6 -33v-22h-78v34q1 22 5.5 37.5t15.5 26t30.5 15.5t51.5 5q31 0 51 -5.5t31.5 -17.5t16 -31.5t4.5 -46.5q0 -17 -1 -31t-4.5 -27t-9.5 -27t-15 -31z" />
<glyph unicode="&#xb3;" horiz-adv-x="240" d="M147 437q0 26 -10.5 36t-39.5 10h-15v60h19q26 0 35 9t9 37v46q0 26 -7 34.5t-15 8.5q-14 0 -21 -13.5t-7 -36.5v-13h-78q0 32 4.5 53t15.5 35q12 14 33 19.5t53 5.5t51.5 -6.5t30.5 -20.5t14.5 -36t3.5 -53q0 -28 -2.5 -45.5t-9 -28t-19 -15.5t-32.5 -8v-2 q17 -2 29.5 -6t20.5 -16t11.5 -34.5t3.5 -60.5q0 -30 -4.5 -51t-16 -33.5t-32 -18.5t-53.5 -6q-32 0 -52 6t-31.5 18.5t-16 33.5t-4.5 51v13h78v-18q0 -54 26 -54q28 0 28 54v46z" />
<glyph unicode="&#xb4;" horiz-adv-x="168" d="M104 742h100l-109 -145h-60z" />
<glyph unicode="&#xb5;" d="M299 0h-88v42h-2q-5 -21 -18 -34q-6 -6 -14 -10t-16 -4q-20 0 -33 12v-188h-94v684h94v-391q0 -20 7 -32.5t29 -12.5q17 0 29 12t12 41v383h94v-502z" />
<glyph unicode="&#x3bc;" d="M299 0h-88v42h-2q-5 -21 -18 -34q-6 -6 -14 -10t-16 -4q-20 0 -33 12v-188h-94v684h94v-391q0 -20 7 -32.5t29 -12.5q17 0 29 12t12 41v383h94v-502z" />
<glyph unicode="&#xb6;" horiz-adv-x="400" d="M134 409q-26 0 -48 12t-37.5 33t-24 49t-8.5 60q0 38 12 67.5t33 50t49.5 31t61.5 10.5h180v-722h-78v662h-62v-662h-78v409z" />
<glyph unicode="&#xb7;" horiz-adv-x="186" d="M23 300q0 29 20.5 49.5t49.5 20.5t49.5 -20.5t20.5 -49.5t-20.5 -49.5t-49.5 -20.5t-49.5 20.5t-20.5 49.5z" />
<glyph unicode="&#xb8;" horiz-adv-x="168" d="M26 -134q10 -5 20.5 -8.5t27.5 -3.5q26 0 35.5 12t9.5 23q0 17 -13.5 24.5t-24.5 7.5q-24 0 -44 -10l25 97h39l-13 -51l2 -2q5 2 12 2h15q27 0 47.5 -16t20.5 -47q0 -32 -27 -54t-70 -22q-23 0 -42.5 5.5t-27.5 11.5z" />
<glyph unicode="&#xb9;" horiz-adv-x="240" d="M167 291h-78v340h-2q-11 -14 -23 -24l-26 -21v66q6 4 14.5 13t17 20t15.5 21.5t10 17.5h72v-433z" />
<glyph unicode="&#xba;" horiz-adv-x="240" d="M29 650q0 37 23 57.5t68 20.5q38 0 64.5 -16t26.5 -56v-152q0 -37 -23 -57t-67 -20q-38 0 -65 16t-27 55v152zM95 510q0 -17 5.5 -27t20.5 -10q24 0 24 37v135q0 37 -24 37q-15 0 -20.5 -10t-5.5 -27v-135z" />
<glyph unicode="&#xbb;" d="M79 253l-58 198h72l80 -198l-80 -198h-72zM218 253l-58 198h72l80 -198l-80 -198h-72z" />
<glyph unicode="&#xbc;" horiz-adv-x="555" d="M494 154h28v-54h-28v-100h-78v100h-135v54l104 279h109v-279zM416 349h-2l-67 -195h69v195zM341 728h60l-227 -734h-60zM162 291h-78v340h-2q-11 -14 -23 -24l-26 -21v66q6 4 14.5 13t17 20t15.5 21.5t10 17.5h72v-433z" />
<glyph unicode="&#xbd;" horiz-adv-x="555" d="M332 728h60l-227 -734h-60zM162 291h-78v340h-2q-11 -14 -23 -24l-26 -21v66q6 4 14.5 13t17 20t15.5 21.5t10 17.5h72v-433zM393 60h128v-60h-209v60q31 48 53 86l43 75q10 18 17 32.5t11.5 28t6 28t1.5 33.5q0 44 -25 44q-13 0 -19 -13t-6 -33v-22h-78v34 q1 22 5.5 37.5t15.5 26t30.5 15.5t51.5 5q31 0 51 -5.5t31.5 -17.5t16 -31.5t4.5 -46.5q0 -17 -1 -31t-4.5 -27t-9.5 -27t-15 -31z" />
<glyph unicode="&#xbe;" horiz-adv-x="555" d="M370 728h60l-227 -734h-60zM147 437q0 26 -10.5 36t-39.5 10h-15v60h19q26 0 35 9t9 37v46q0 26 -7 34.5t-15 8.5q-14 0 -21 -13.5t-7 -36.5v-13h-78q0 32 4.5 53t15.5 35q12 14 33 19.5t53 5.5t51.5 -6.5t30.5 -20.5t14.5 -36t3.5 -53q0 -28 -2.5 -45.5t-9 -28 t-19 -15.5t-32.5 -8v-2q17 -2 29.5 -6t20.5 -16t11.5 -34.5t3.5 -60.5q0 -30 -4.5 -51t-16 -33.5t-32 -18.5t-53.5 -6q-32 0 -52 6t-31.5 18.5t-16 33.5t-4.5 51v13h78v-18q0 -54 26 -54q28 0 28 54v46zM512 154h28v-54h-28v-100h-78v100h-135v54l104 279h109v-279zM434 349 h-2l-67 -195h69v195z" />
<glyph unicode="&#xbf;" horiz-adv-x="315" d="M200 257q0 -25 -2 -44.5t-6 -38.5t-12 -40l-17 -46l-21 -48q-8 -18 -12 -29.5t-6 -22.5t-2.5 -23.5t-0.5 -31.5q0 -29 7 -42t28 -13q19 0 26 14t7 35v64h94v-64q0 -65 -33 -90t-94 -25q-74 0 -101.5 32.5t-27.5 103.5q0 28 2 47t5 33.5t7.5 26t10.5 23.5l31 62 q10 21 17.5 38.5t12.5 35t7 37t2 44.5v82h78v-120zM214 440h-106v100h106v-100z" />
<glyph unicode="&#xc0;" horiz-adv-x="444" d="M170 722h116l147 -722h-100l-33 184h-156l-33 -184h-100zM159 268h127l-62 348h-2zM107 917h100l69 -145h-60z" />
<glyph unicode="&#xc1;" horiz-adv-x="444" d="M170 722h116l147 -722h-100l-33 184h-156l-33 -184h-100zM159 268h127l-62 348h-2zM247 917h100l-109 -145h-60z" />
<glyph unicode="&#xc2;" horiz-adv-x="444" d="M170 722h116l147 -722h-100l-33 184h-156l-33 -184h-100zM159 268h127l-62 348h-2zM188 917h78l98 -145h-72l-65 85l-65 -85h-72z" />
<glyph unicode="&#xc3;" horiz-adv-x="444" d="M170 722h116l147 -722h-100l-33 184h-156l-33 -184h-100zM159 268h127l-62 348h-2zM80 788q1 17 6 35.5t16 35.5t29 27.5t44 10.5q17 0 33.5 -6t30.5 -12l28 -13q12 -6 21 -6q12 0 21 14.5t11 28.5h54q-1 -17 -6 -36t-16.5 -35t-29 -27t-43.5 -11q-17 0 -33.5 6t-30.5 13 l-28 12q-12 6 -21 6q-12 0 -21 -14.5t-11 -28.5h-54z" />
<glyph unicode="&#xc4;" horiz-adv-x="444" d="M170 722h116l147 -722h-100l-33 184h-156l-33 -184h-100zM159 268h127l-62 348h-2zM111 897h78v-100h-78v100zM265 897h78v-100h-78v100z" />
<glyph unicode="&#xc5;" horiz-adv-x="444" d="M170 722h116l147 -722h-100l-33 184h-156l-33 -184h-100zM159 268h127l-62 348h-2zM137 834q0 38 26 64t64 26t64 -26t26 -64t-26 -64t-64 -26t-64 26t-26 64zM183 834q0 -18 13 -31t31 -13t31 13t13 31t-13 31t-31 13t-31 -13t-13 -31z" />
<glyph unicode="&#xc6;" horiz-adv-x="611" d="M288 628h-2l-100 -360h130zM235 722h370v-84h-230l20 -226h200v-84h-193l21 -244h182v-84h-269l-14 184h-160l-51 -184h-100z" />
<glyph unicode="&#xc7;" horiz-adv-x="352" d="M340 128q0 -28 -6.5 -52t-22.5 -42t-43.5 -28.5t-69.5 -11.5l-10 -37l2 -2q5 2 12 2h15q27 0 47.5 -16t20.5 -47q0 -32 -27 -54t-70 -22q-23 0 -42.5 5.5t-27.5 11.5l8 31q10 -5 20.5 -8.5t27.5 -3.5q26 0 35.5 12t9.5 23q0 17 -13.5 24.5t-24.5 7.5q-24 0 -44 -10l22 86 q-75 8 -104 54t-29 122v365q0 38 7.5 72.5t26 60.5t51.5 41.5t84 15.5q75 0 110 -35t35 -96v-72h-94v50q0 35 -13 55t-45 20q-39 0 -50.5 -29t-11.5 -95v-354q0 -32 4.5 -51.5t13 -30.5t19 -14.5t22.5 -3.5q28 0 44.5 20.5t16.5 65.5v50h94v-80z" />
<glyph unicode="&#xc8;" horiz-adv-x="315" d="M37 722h272v-84h-172v-226h162v-84h-162v-244h172v-84h-272v722zM50 917h100l69 -145h-60z" />
<glyph unicode="&#xc9;" horiz-adv-x="315" d="M37 722h272v-84h-172v-226h162v-84h-162v-244h172v-84h-272v722zM190 917h100l-109 -145h-60z" />
<glyph unicode="&#xca;" horiz-adv-x="315" d="M37 722h272v-84h-172v-226h162v-84h-162v-244h172v-84h-272v722zM131 917h78l98 -145h-72l-65 85l-65 -85h-72z" />
<glyph unicode="&#xcb;" horiz-adv-x="315" d="M37 722h272v-84h-172v-226h162v-84h-162v-244h172v-84h-272v722zM54 897h78v-100h-78v100zM208 897h78v-100h-78v100z" />
<glyph unicode="&#xcc;" horiz-adv-x="168" d="M34 722h100v-722h-100v722zM-36 917h100l69 -145h-60z" />
<glyph unicode="&#xcd;" horiz-adv-x="168" d="M34 722h100v-722h-100v722zM104 917h100l-109 -145h-60z" />
<glyph unicode="&#xce;" horiz-adv-x="168" d="M34 722h100v-722h-100v722zM45 917h78l98 -145h-72l-65 85l-65 -85h-72z" />
<glyph unicode="&#xcf;" horiz-adv-x="168" d="M34 722h100v-722h-100v722zM-32 897h78v-100h-78v100zM122 897h78v-100h-78v100z" />
<glyph unicode="&#xd0;" horiz-adv-x="407" d="M37 328h-37v84h37v310h161q61 0 96 -11.5t52.5 -41.5t22 -81t4.5 -130v-215q0 -69 -7.5 -116t-28.5 -75t-58.5 -40t-96.5 -12h-145v328zM137 84h48q28 0 45 8t26.5 27t13 50t3.5 78v248q0 40 -3 67.5t-13 44t-29 24t-51 7.5h-40v-226h67v-84h-67v-244z" />
<glyph unicode="&#xd1;" horiz-adv-x="426" d="M37 722h138l118 -600h2v600h94v-722h-144l-118 616h-2v-616h-88v722zM66 788q1 17 6 35.5t16 35.5t29 27.5t44 10.5q17 0 33.5 -6t30.5 -12l28 -13q12 -6 21 -6q12 0 21 14.5t11 28.5h54q-1 -17 -6 -36t-16.5 -35t-29 -27t-43.5 -11q-17 0 -33.5 6t-30.5 13l-28 12 q-12 6 -21 6q-12 0 -21 -14.5t-11 -28.5h-54z" />
<glyph unicode="&#xd2;" horiz-adv-x="407" d="M134 167q0 -47 19 -71t50 -24q32 0 51 24t19 71v379q0 104 -70 104q-69 0 -69 -104v-379zM34 538q0 38 7.5 72.5t26 60.5t51.5 41.5t84 15.5q48 0 81 -12t52.5 -35.5t28 -56.5t8.5 -75v-365q0 -38 -7.5 -72.5t-26.5 -60.5t-52 -41.5t-84 -15.5q-48 0 -80.5 12t-52 35.5 t-28 56.5t-8.5 75v365zM84 917h100l69 -145h-60z" />
<glyph unicode="&#xd3;" horiz-adv-x="407" d="M134 167q0 -47 19 -71t50 -24q32 0 51 24t19 71v379q0 104 -70 104q-69 0 -69 -104v-379zM34 538q0 38 7.5 72.5t26 60.5t51.5 41.5t84 15.5q48 0 81 -12t52.5 -35.5t28 -56.5t8.5 -75v-365q0 -38 -7.5 -72.5t-26.5 -60.5t-52 -41.5t-84 -15.5q-48 0 -80.5 12t-52 35.5 t-28 56.5t-8.5 75v365zM224 917h100l-109 -145h-60z" />
<glyph unicode="&#xd4;" horiz-adv-x="407" d="M134 167q0 -47 19 -71t50 -24q32 0 51 24t19 71v379q0 104 -70 104q-69 0 -69 -104v-379zM34 538q0 38 7.5 72.5t26 60.5t51.5 41.5t84 15.5q48 0 81 -12t52.5 -35.5t28 -56.5t8.5 -75v-365q0 -38 -7.5 -72.5t-26.5 -60.5t-52 -41.5t-84 -15.5q-48 0 -80.5 12t-52 35.5 t-28 56.5t-8.5 75v365zM165 917h78l98 -145h-72l-65 85l-65 -85h-72z" />
<glyph unicode="&#xd5;" horiz-adv-x="407" d="M134 167q0 -47 19 -71t50 -24q32 0 51 24t19 71v379q0 104 -70 104q-69 0 -69 -104v-379zM34 538q0 38 7.5 72.5t26 60.5t51.5 41.5t84 15.5q48 0 81 -12t52.5 -35.5t28 -56.5t8.5 -75v-365q0 -38 -7.5 -72.5t-26.5 -60.5t-52 -41.5t-84 -15.5q-48 0 -80.5 12t-52 35.5 t-28 56.5t-8.5 75v365zM57 788q1 17 6 35.5t16 35.5t29 27.5t44 10.5q17 0 33.5 -6t30.5 -12l28 -13q12 -6 21 -6q12 0 21 14.5t11 28.5h54q-1 -17 -6 -36t-16.5 -35t-29 -27t-43.5 -11q-17 0 -33.5 6t-30.5 13l-28 12q-12 6 -21 6q-12 0 -21 -14.5t-11 -28.5h-54z" />
<glyph unicode="&#xd6;" horiz-adv-x="407" d="M134 167q0 -47 19 -71t50 -24q32 0 51 24t19 71v379q0 104 -70 104q-69 0 -69 -104v-379zM34 538q0 38 7.5 72.5t26 60.5t51.5 41.5t84 15.5q48 0 81 -12t52.5 -35.5t28 -56.5t8.5 -75v-365q0 -38 -7.5 -72.5t-26.5 -60.5t-52 -41.5t-84 -15.5q-48 0 -80.5 12t-52 35.5 t-28 56.5t-8.5 75v365zM88 897h78v-100h-78v100zM242 897h78v-100h-78v100z" />
<glyph unicode="&#xd7;" horiz-adv-x="600" d="M245 253l-174 174l55 55l174 -174l174 174l55 -55l-174 -174l174 -174l-55 -55l-174 174l-174 -174l-55 55z" />
<glyph unicode="&#xd8;" horiz-adv-x="407" d="M134 240h2l131 357q-3 20 -19 36.5t-45 16.5q-69 0 -69 -104v-306zM63 51q-16 23 -22.5 53.5t-6.5 68.5v365q0 38 7.5 72.5t26 60.5t51.5 41.5t84 15.5q65 0 104 -24l24 64l37 -18l-28 -75q18 -22 25.5 -53.5t7.5 -72.5v-365q0 -38 -7.5 -72.5t-26.5 -60.5t-52 -41.5 t-84 -15.5q-71 0 -108 27l-20 -55l-37 18zM273 496h-2l-134 -361q5 -26 21 -44.5t45 -18.5q32 0 51 24t19 71v329z" />
<glyph unicode="&#xd9;" horiz-adv-x="407" d="M373 163q0 -32 -7.5 -62t-26 -54t-51.5 -38.5t-84 -14.5t-84 14.5t-52 38.5t-26.5 54t-7.5 62v559h100v-576q0 -37 15.5 -55.5t54.5 -18.5q38 0 53.5 18.5t15.5 55.5v576h100v-559zM84 917h100l69 -145h-60z" />
<glyph unicode="&#xda;" horiz-adv-x="407" d="M373 163q0 -32 -7.5 -62t-26 -54t-51.5 -38.5t-84 -14.5t-84 14.5t-52 38.5t-26.5 54t-7.5 62v559h100v-576q0 -37 15.5 -55.5t54.5 -18.5q38 0 53.5 18.5t15.5 55.5v576h100v-559zM224 917h100l-109 -145h-60z" />
<glyph unicode="&#xdb;" horiz-adv-x="407" d="M373 163q0 -32 -7.5 -62t-26 -54t-51.5 -38.5t-84 -14.5t-84 14.5t-52 38.5t-26.5 54t-7.5 62v559h100v-576q0 -37 15.5 -55.5t54.5 -18.5q38 0 53.5 18.5t15.5 55.5v576h100v-559zM165 917h78l98 -145h-72l-65 85l-65 -85h-72z" />
<glyph unicode="&#xdc;" horiz-adv-x="407" d="M373 163q0 -32 -7.5 -62t-26 -54t-51.5 -38.5t-84 -14.5t-84 14.5t-52 38.5t-26.5 54t-7.5 62v559h100v-576q0 -37 15.5 -55.5t54.5 -18.5q38 0 53.5 18.5t15.5 55.5v576h100v-559zM88 897h78v-100h-78v100zM242 897h78v-100h-78v100z" />
<glyph unicode="&#xdd;" horiz-adv-x="407" d="M15 722h100l87 -304h2l100 304h88l-139 -426v-296h-100v296zM224 917h100l-109 -145h-60z" />
<glyph unicode="&#xde;" horiz-adv-x="389" d="M137 278h52q25 0 40 3.5t23 15.5t10 36t2 65t-2 65t-10 36t-23 15.5t-40 3.5h-52v-240zM37 722h100v-120h65q51 0 82.5 -8.5t49.5 -31t24 -62t6 -102.5t-6 -102.5t-24 -62t-49.5 -31t-82.5 -8.5h-65v-194h-100v722z" />
<glyph unicode="&#xdf;" horiz-adv-x="352" d="M34 605q0 67 37.5 95t101.5 28q68 0 96.5 -27t28.5 -77v-129q-16 -17 -28 -32.5t-12 -39.5q0 -25 14 -55t31 -63q15 -30 23.5 -50.5t13 -40t6 -42t1.5 -56.5q0 -65 -27.5 -93.5t-101.5 -28.5q-18 0 -33.5 1.5t-27.5 3.5v60q11 -2 22 -3.5t20 -1.5q32 0 43 17.5t11 65.5 q0 45 -13.5 81t-30.5 69t-31 65.5t-14 69.5q0 32 12 55t28 40v83q0 29 -7.5 42.5t-27.5 13.5q-18 0 -29.5 -11.5t-11.5 -41.5v-603h-94v605z" />
<glyph unicode="&#xe0;" d="M32 399q0 109 134 109q65 0 99 -28t34 -94v-386h-88v52q-8 -8 -13.5 -15.5t-13.5 -15.5q-13 -13 -31 -20t-36 -7q-21 0 -38 4.5t-29 19t-18.5 41.5t-6.5 72q0 38 1.5 62.5t5.5 41t10.5 27t16.5 20.5q8 9 17 14.5t24 9.5t39.5 5.5t65.5 1.5v81q0 22 -7.5 35t-31.5 13 q-20 0 -30 -9.5t-10 -32.5v-46h-94v45zM175 247q-33 0 -44.5 -22t-11.5 -81q0 -28 1.5 -44.5t5.5 -25.5t11.5 -11.5t18.5 -2.5q24 0 36.5 16t12.5 42v129h-30zM47 742h100l69 -145h-60z" />
<glyph unicode="&#xe1;" d="M32 399q0 109 134 109q65 0 99 -28t34 -94v-386h-88v52q-8 -8 -13.5 -15.5t-13.5 -15.5q-13 -13 -31 -20t-36 -7q-21 0 -38 4.5t-29 19t-18.5 41.5t-6.5 72q0 38 1.5 62.5t5.5 41t10.5 27t16.5 20.5q8 9 17 14.5t24 9.5t39.5 5.5t65.5 1.5v81q0 22 -7.5 35t-31.5 13 q-20 0 -30 -9.5t-10 -32.5v-46h-94v45zM175 247q-33 0 -44.5 -22t-11.5 -81q0 -28 1.5 -44.5t5.5 -25.5t11.5 -11.5t18.5 -2.5q24 0 36.5 16t12.5 42v129h-30zM187 742h100l-109 -145h-60z" />
<glyph unicode="&#xe2;" d="M32 399q0 109 134 109q65 0 99 -28t34 -94v-386h-88v52q-8 -8 -13.5 -15.5t-13.5 -15.5q-13 -13 -31 -20t-36 -7q-21 0 -38 4.5t-29 19t-18.5 41.5t-6.5 72q0 38 1.5 62.5t5.5 41t10.5 27t16.5 20.5q8 9 17 14.5t24 9.5t39.5 5.5t65.5 1.5v81q0 22 -7.5 35t-31.5 13 q-20 0 -30 -9.5t-10 -32.5v-46h-94v45zM175 247q-33 0 -44.5 -22t-11.5 -81q0 -28 1.5 -44.5t5.5 -25.5t11.5 -11.5t18.5 -2.5q24 0 36.5 16t12.5 42v129h-30zM128 742h78l98 -145h-72l-65 85l-65 -85h-72z" />
<glyph unicode="&#xe3;" d="M32 399q0 109 134 109q65 0 99 -28t34 -94v-386h-88v52q-8 -8 -13.5 -15.5t-13.5 -15.5q-13 -13 -31 -20t-36 -7q-21 0 -38 4.5t-29 19t-18.5 41.5t-6.5 72q0 38 1.5 62.5t5.5 41t10.5 27t16.5 20.5q8 9 17 14.5t24 9.5t39.5 5.5t65.5 1.5v81q0 22 -7.5 35t-31.5 13 q-20 0 -30 -9.5t-10 -32.5v-46h-94v45zM175 247q-33 0 -44.5 -22t-11.5 -81q0 -28 1.5 -44.5t5.5 -25.5t11.5 -11.5t18.5 -2.5q24 0 36.5 16t12.5 42v129h-30zM20 613q1 17 6 35.5t16 35.5t29 27.5t44 10.5q17 0 33.5 -6t30.5 -12l28 -13q12 -6 21 -6q12 0 21 14.5t11 28.5 h54q-1 -17 -6 -36t-16.5 -35t-29 -27t-43.5 -11q-17 0 -33.5 6t-30.5 13l-28 12q-12 6 -21 6q-12 0 -21 -14.5t-11 -28.5h-54z" />
<glyph unicode="&#xe4;" d="M32 399q0 109 134 109q65 0 99 -28t34 -94v-386h-88v52q-8 -8 -13.5 -15.5t-13.5 -15.5q-13 -13 -31 -20t-36 -7q-21 0 -38 4.5t-29 19t-18.5 41.5t-6.5 72q0 38 1.5 62.5t5.5 41t10.5 27t16.5 20.5q8 9 17 14.5t24 9.5t39.5 5.5t65.5 1.5v81q0 22 -7.5 35t-31.5 13 q-20 0 -30 -9.5t-10 -32.5v-46h-94v45zM175 247q-33 0 -44.5 -22t-11.5 -81q0 -28 1.5 -44.5t5.5 -25.5t11.5 -11.5t18.5 -2.5q24 0 36.5 16t12.5 42v129h-30zM51 722h78v-100h-78v100zM205 722h78v-100h-78v100z" />
<glyph unicode="&#xe5;" d="M32 399q0 109 134 109q65 0 99 -28t34 -94v-386h-88v52q-8 -8 -13.5 -15.5t-13.5 -15.5q-13 -13 -31 -20t-36 -7q-21 0 -38 4.5t-29 19t-18.5 41.5t-6.5 72q0 38 1.5 62.5t5.5 41t10.5 27t16.5 20.5q8 9 17 14.5t24 9.5t39.5 5.5t65.5 1.5v81q0 22 -7.5 35t-31.5 13 q-20 0 -30 -9.5t-10 -32.5v-46h-94v45zM175 247q-33 0 -44.5 -22t-11.5 -81q0 -28 1.5 -44.5t5.5 -25.5t11.5 -11.5t18.5 -2.5q24 0 36.5 16t12.5 42v129h-30zM77 659q0 38 26 64t64 26t64 -26t26 -64t-26 -64t-64 -26t-64 26t-26 64zM123 659q0 -18 13 -31t31 -13t31 13 t13 31t-13 31t-31 13t-31 -13t-13 -31z" />
<glyph unicode="&#xe6;" horiz-adv-x="481" d="M196 234h-20q-33 0 -44 -14t-11 -49v-59q0 -35 7.5 -46.5t24.5 -11.5q23 0 33 11.5t10 49.5v119zM290 300h76v72q0 41 -8.5 55.5t-31.5 14.5t-29.5 -14.5t-6.5 -46.5v-81zM33 393q0 54 30 84.5t84 30.5q42 0 67 -14.5t31 -31.5q13 22 35.5 34t58.5 12q58 0 86.5 -33 t28.5 -96v-145h-164v-122q0 -35 12 -46.5t26 -11.5q15 0 26.5 12.5t11.5 50.5v37h88v-31q0 -71 -34 -100t-87 -29q-33 0 -56 9t-37 35q-14 -23 -33.5 -33.5t-59.5 -10.5q-36 0 -59.5 9t-37 27t-18.5 44.5t-5 60.5t1.5 56t5 36t10 23.5t15.5 18.5q21 19 50.5 25t86.5 6v93 q0 29 -8 39t-25 10q-36 0 -36 -54v-34h-94v39z" />
<glyph unicode="&#xe7;" horiz-adv-x="296" d="M275 93q0 -27 -9.5 -45.5t-25.5 -30t-35.5 -17t-40.5 -6.5l-10 -37l2 -2q5 2 12 2h15q27 0 47.5 -16t20.5 -47q0 -32 -27 -54t-70 -22q-23 0 -42.5 5.5t-27.5 11.5l8 31q10 -5 20.5 -8.5t27.5 -3.5q26 0 35.5 12t9.5 23q0 17 -13.5 24.5t-24.5 7.5q-24 0 -44 -10l22 83 q-45 8 -74.5 36.5t-29.5 88.5v254q0 64 34.5 99.5t97.5 35.5q64 0 93 -28t29 -72v-75h-88v55q0 29 -9.5 41.5t-26.5 12.5t-26.5 -15t-9.5 -44v-276q0 -47 36 -47t36 49v60h88v-76z" />
<glyph unicode="&#xe8;" d="M30 373q0 64 35 99.5t101 35.5q28 0 53 -6.5t43.5 -21t29.5 -38.5t11 -59v-162h-179v-107q0 -35 11.5 -47.5t34.5 -12.5q26 0 35.5 17.5t9.5 47.5v46h88v-71q0 -19 -7.5 -37t-24 -32t-43 -22.5t-65.5 -8.5q-27 0 -51 6.5t-42 21t-29 38.5t-11 59v254zM124 287h91v98 q0 34 -10.5 48.5t-34.5 14.5q-26 0 -36 -14t-10 -41v-106zM47 742h100l69 -145h-60z" />
<glyph unicode="&#xe9;" d="M30 373q0 64 35 99.5t101 35.5q28 0 53 -6.5t43.5 -21t29.5 -38.5t11 -59v-162h-179v-107q0 -35 11.5 -47.5t34.5 -12.5q26 0 35.5 17.5t9.5 47.5v46h88v-71q0 -19 -7.5 -37t-24 -32t-43 -22.5t-65.5 -8.5q-27 0 -51 6.5t-42 21t-29 38.5t-11 59v254zM124 287h91v98 q0 34 -10.5 48.5t-34.5 14.5q-26 0 -36 -14t-10 -41v-106zM187 742h100l-109 -145h-60z" />
<glyph unicode="&#xea;" d="M30 373q0 64 35 99.5t101 35.5q28 0 53 -6.5t43.5 -21t29.5 -38.5t11 -59v-162h-179v-107q0 -35 11.5 -47.5t34.5 -12.5q26 0 35.5 17.5t9.5 47.5v46h88v-71q0 -19 -7.5 -37t-24 -32t-43 -22.5t-65.5 -8.5q-27 0 -51 6.5t-42 21t-29 38.5t-11 59v254zM124 287h91v98 q0 34 -10.5 48.5t-34.5 14.5q-26 0 -36 -14t-10 -41v-106zM128 742h78l98 -145h-72l-65 85l-65 -85h-72z" />
<glyph unicode="&#xeb;" d="M30 373q0 64 35 99.5t101 35.5q28 0 53 -6.5t43.5 -21t29.5 -38.5t11 -59v-162h-179v-107q0 -35 11.5 -47.5t34.5 -12.5q26 0 35.5 17.5t9.5 47.5v46h88v-71q0 -19 -7.5 -37t-24 -32t-43 -22.5t-65.5 -8.5q-27 0 -51 6.5t-42 21t-29 38.5t-11 59v254zM124 287h91v98 q0 34 -10.5 48.5t-34.5 14.5q-26 0 -36 -14t-10 -41v-106zM51 722h78v-100h-78v100zM205 722h78v-100h-78v100z" />
<glyph unicode="&#xec;" horiz-adv-x="168" d="M37 502h94v-502h-94v502zM-36 742h100l69 -145h-60z" />
<glyph unicode="&#xed;" horiz-adv-x="168" d="M37 502h94v-502h-94v502zM104 742h100l-109 -145h-60z" />
<glyph unicode="&#xee;" horiz-adv-x="168" d="M37 502h94v-502h-94v502zM45 742h78l98 -145h-72l-65 85l-65 -85h-72z" />
<glyph unicode="&#xef;" horiz-adv-x="168" d="M37 502h94v-502h-94v502zM-32 722h78v-100h-78v100zM122 722h78v-100h-78v100z" />
<glyph unicode="&#xf0;" d="M127 123q0 -30 8.5 -46.5t31.5 -16.5q22 0 30.5 16.5t8.5 46.5v256q0 30 -8.5 46.5t-30.5 16.5q-23 0 -31.5 -16.5t-8.5 -46.5v-256zM33 373q0 64 34 99.5t94 35.5q15 0 34 -6t24 -14l2 2q-1 29 -8 57t-21 52l-72 -35l-30 39l73 36q-31 34 -80 54l69 35q49 -20 79 -56 l69 34l30 -39l-72 -35q22 -39 32 -96.5t10 -137.5v-269q0 -64 -35 -99.5t-98 -35.5q-27 0 -51.5 6.5t-42.5 21t-29 38.5t-11 59v254z" />
<glyph unicode="&#xf1;" d="M34 502h88v-42h2q14 23 36 35q22 13 51 13q18 0 34 -5t28 -16.5t19 -30.5t7 -47v-409h-94v391q0 20 -7 32.5t-29 12.5q-17 0 -29 -12t-12 -41v-383h-94v502zM20 613q1 17 6 35.5t16 35.5t29 27.5t44 10.5q17 0 33.5 -6t30.5 -12l28 -13q12 -6 21 -6q12 0 21 14.5t11 28.5 h54q-1 -17 -6 -36t-16.5 -35t-29 -27t-43.5 -11q-17 0 -33.5 6t-30.5 13l-28 12q-12 6 -21 6q-12 0 -21 -14.5t-11 -28.5h-54z" />
<glyph unicode="&#xf2;" d="M33 373q0 64 35 99.5t98 35.5q27 0 51.5 -6.5t42.5 -21t29 -38.5t11 -59v-254q0 -64 -35 -99.5t-98 -35.5q-27 0 -51.5 6.5t-42.5 21t-29 38.5t-11 59v254zM127 123q0 -30 8.5 -46.5t31.5 -16.5q22 0 30.5 16.5t8.5 46.5v256q0 30 -8.5 46.5t-30.5 16.5 q-23 0 -31.5 -16.5t-8.5 -46.5v-256zM47 742h100l69 -145h-60z" />
<glyph unicode="&#xf3;" d="M33 373q0 64 35 99.5t98 35.5q27 0 51.5 -6.5t42.5 -21t29 -38.5t11 -59v-254q0 -64 -35 -99.5t-98 -35.5q-27 0 -51.5 6.5t-42.5 21t-29 38.5t-11 59v254zM127 123q0 -30 8.5 -46.5t31.5 -16.5q22 0 30.5 16.5t8.5 46.5v256q0 30 -8.5 46.5t-30.5 16.5 q-23 0 -31.5 -16.5t-8.5 -46.5v-256zM187 742h100l-109 -145h-60z" />
<glyph unicode="&#xf4;" d="M33 373q0 64 35 99.5t98 35.5q27 0 51.5 -6.5t42.5 -21t29 -38.5t11 -59v-254q0 -64 -35 -99.5t-98 -35.5q-27 0 -51.5 6.5t-42.5 21t-29 38.5t-11 59v254zM127 123q0 -30 8.5 -46.5t31.5 -16.5q22 0 30.5 16.5t8.5 46.5v256q0 30 -8.5 46.5t-30.5 16.5 q-23 0 -31.5 -16.5t-8.5 -46.5v-256zM128 742h78l98 -145h-72l-65 85l-65 -85h-72z" />
<glyph unicode="&#xf5;" d="M33 373q0 64 35 99.5t98 35.5q27 0 51.5 -6.5t42.5 -21t29 -38.5t11 -59v-254q0 -64 -35 -99.5t-98 -35.5q-27 0 -51.5 6.5t-42.5 21t-29 38.5t-11 59v254zM127 123q0 -30 8.5 -46.5t31.5 -16.5q22 0 30.5 16.5t8.5 46.5v256q0 30 -8.5 46.5t-30.5 16.5 q-23 0 -31.5 -16.5t-8.5 -46.5v-256zM20 613q1 17 6 35.5t16 35.5t29 27.5t44 10.5q17 0 33.5 -6t30.5 -12l28 -13q12 -6 21 -6q12 0 21 14.5t11 28.5h54q-1 -17 -6 -36t-16.5 -35t-29 -27t-43.5 -11q-17 0 -33.5 6t-30.5 13l-28 12q-12 6 -21 6q-12 0 -21 -14.5t-11 -28.5 h-54z" />
<glyph unicode="&#xf6;" d="M33 373q0 64 35 99.5t98 35.5q27 0 51.5 -6.5t42.5 -21t29 -38.5t11 -59v-254q0 -64 -35 -99.5t-98 -35.5q-27 0 -51.5 6.5t-42.5 21t-29 38.5t-11 59v254zM127 123q0 -30 8.5 -46.5t31.5 -16.5q22 0 30.5 16.5t8.5 46.5v256q0 30 -8.5 46.5t-30.5 16.5 q-23 0 -31.5 -16.5t-8.5 -46.5v-256zM51 722h78v-100h-78v100zM205 722h78v-100h-78v100z" />
<glyph unicode="&#xf7;" horiz-adv-x="600" d="M230 46q0 29 20.5 49.5t49.5 20.5t49.5 -20.5t20.5 -49.5t-20.5 -49.5t-49.5 -20.5t-49.5 20.5t-20.5 49.5zM47 295h506v-84h-506v84zM230 460q0 29 20.5 49.5t49.5 20.5t49.5 -20.5t20.5 -49.5t-20.5 -49.5t-49.5 -20.5t-49.5 20.5t-20.5 49.5z" />
<glyph unicode="&#xf8;" d="M127 208h2l77 186q-1 20 -9 34t-30 14q-23 0 -31.5 -16.5t-8.5 -46.5v-171zM206 307h-2l-77 -188q1 -29 9.5 -44t30.5 -15t30.5 16.5t8.5 46.5v184zM57 40q-24 27 -24 79v254q0 64 35 99.5t98 35.5q22 0 42 -4t37 -14l27 64l31 -16l-30 -71q13 -14 20 -34.5t7 -49.5v-254 q0 -64 -35 -99.5t-98 -35.5q-49 0 -83 21l-23 -55l-31 16z" />
<glyph unicode="&#xf9;" d="M299 0h-88v42h-2q-14 -23 -36 -35q-22 -13 -51 -13q-18 0 -34 5t-28 16.5t-19 30.5t-7 47v409h94v-391q0 -20 7 -32.5t29 -12.5q17 0 29 12t12 41v383h94v-502zM47 742h100l69 -145h-60z" />
<glyph unicode="&#xfa;" d="M299 0h-88v42h-2q-14 -23 -36 -35q-22 -13 -51 -13q-18 0 -34 5t-28 16.5t-19 30.5t-7 47v409h94v-391q0 -20 7 -32.5t29 -12.5q17 0 29 12t12 41v383h94v-502zM187 742h100l-109 -145h-60z" />
<glyph unicode="&#xfb;" d="M299 0h-88v42h-2q-14 -23 -36 -35q-22 -13 -51 -13q-18 0 -34 5t-28 16.5t-19 30.5t-7 47v409h94v-391q0 -20 7 -32.5t29 -12.5q17 0 29 12t12 41v383h94v-502zM128 742h78l98 -145h-72l-65 85l-65 -85h-72z" />
<glyph unicode="&#xfc;" d="M299 0h-88v42h-2q-14 -23 -36 -35q-22 -13 -51 -13q-18 0 -34 5t-28 16.5t-19 30.5t-7 47v409h94v-391q0 -20 7 -32.5t29 -12.5q17 0 29 12t12 41v383h94v-502zM51 722h78v-100h-78v100zM205 722h78v-100h-78v100z" />
<glyph unicode="&#xfd;" d="M6 502h100l62 -363h2l63 363h94l-163 -684h-88l44 189zM187 742h100l-109 -145h-60z" />
<glyph unicode="&#xfe;" d="M33 722h94v-276h2q10 26 30.5 44t52.5 18q42 0 65 -30t23 -86v-282q0 -56 -23 -86t-65 -30q-26 0 -49 10t-36 24v-210h-94v904zM127 113q0 -28 12 -40.5t26 -12.5q19 0 30 14t11 58v236q0 41 -10 54.5t-26 13.5q-20 0 -31.5 -17.5t-11.5 -64.5v-241z" />
<glyph unicode="&#xff;" d="M6 502h100l62 -363h2l63 363h94l-163 -684h-88l44 189zM51 722h78v-100h-78v100zM205 722h78v-100h-78v100z" />
<glyph unicode="&#x100;" horiz-adv-x="444" d="M96 842h264v-54h-264v54zM170 722h116l147 -722h-100l-33 184h-156l-33 -184h-100zM159 268h127l-62 348h-2z" />
<glyph unicode="&#x101;" d="M34 622h264v-54h-264v54zM32 399q0 109 134 109q65 0 99 -28t34 -94v-386h-88v52q-8 -8 -13.5 -15.5t-13.5 -15.5q-13 -13 -31 -20t-36 -7q-21 0 -38 4.5t-29 19t-18.5 41.5t-6.5 72q0 38 1.5 62.5t5.5 41t10.5 27t16.5 20.5q8 9 17 14.5t24 9.5t39.5 5.5t65.5 1.5v81 q0 22 -7.5 35t-31.5 13q-20 0 -30 -9.5t-10 -32.5v-46h-94v45zM175 247q-33 0 -44.5 -22t-11.5 -81q0 -28 1.5 -44.5t5.5 -25.5t11.5 -11.5t18.5 -2.5q24 0 36.5 16t12.5 42v129h-30z" />
<glyph unicode="&#x102;" horiz-adv-x="444" d="M153 918q3 -26 21 -47q10 -10 23.5 -16.5t30.5 -6.5t30.5 6.5t23 16.5t15 22.5t6.5 24.5h49q-2 -22 -8.5 -44.5t-20.5 -42.5q-14 -19 -37 -31t-58 -12t-58 12t-37 31t-21 42t-8 45h49zM170 722h116l147 -722h-100l-33 184h-156l-33 -184h-100zM159 268h127l-62 348h-2z " />
<glyph unicode="&#x103;" d="M91 698q3 -26 21 -47q10 -10 23.5 -16.5t30.5 -6.5t30.5 6.5t23 16.5t15 22.5t6.5 24.5h49q-2 -22 -8.5 -44.5t-20.5 -42.5q-14 -19 -37 -31t-58 -12t-58 12t-37 31t-21 42t-8 45h49zM32 399q0 109 134 109q65 0 99 -28t34 -94v-386h-88v52q-8 -8 -13.5 -15.5 t-13.5 -15.5q-13 -13 -31 -20t-36 -7q-21 0 -38 4.5t-29 19t-18.5 41.5t-6.5 72q0 38 1.5 62.5t5.5 41t10.5 27t16.5 20.5q8 9 17 14.5t24 9.5t39.5 5.5t65.5 1.5v81q0 22 -7.5 35t-31.5 13q-20 0 -30 -9.5t-10 -32.5v-46h-94v45zM175 247q-33 0 -44.5 -22t-11.5 -81 q0 -28 1.5 -44.5t5.5 -25.5t11.5 -11.5t18.5 -2.5q24 0 36.5 16t12.5 42v129h-30z" />
<glyph unicode="&#x104;" horiz-adv-x="444" d="M291 -199q-11 -6 -28 -11t-37 -5q-51 0 -71 19.5t-20 51.5q0 40 24 82t63 69h46q-34 -42 -47.5 -74t-13.5 -57q0 -20 10.5 -32.5t30.5 -12.5q9 0 17 4t16 9zM170 722h116l147 -722h-100l-33 184h-156l-33 -184h-100zM159 268h127l-62 348h-2z" />
<glyph unicode="&#x105;" d="M186 -205q-11 -6 -28 -11t-37 -5q-51 0 -71 19.5t-20 51.5q0 40 24 82t63 69h46q-34 -42 -47.5 -74t-13.5 -57q0 -20 10.5 -32.5t30.5 -12.5q9 0 17 4t16 9zM32 399q0 109 134 109q65 0 99 -28t34 -94v-386h-88v52q-8 -8 -13.5 -15.5t-13.5 -15.5q-13 -13 -31 -20t-36 -7 q-21 0 -38 4.5t-29 19t-18.5 41.5t-6.5 72q0 38 1.5 62.5t5.5 41t10.5 27t16.5 20.5q8 9 17 14.5t24 9.5t39.5 5.5t65.5 1.5v81q0 22 -7.5 35t-31.5 13q-20 0 -30 -9.5t-10 -32.5v-46h-94v45zM175 247q-33 0 -44.5 -22t-11.5 -81q0 -28 1.5 -44.5t5.5 -25.5t11.5 -11.5 t18.5 -2.5q24 0 36.5 16t12.5 42v129h-30z" />
<glyph unicode="&#x106;" horiz-adv-x="352" d="M234 933h100l-109 -145h-60zM26 538q0 38 7.5 72.5t26 60.5t51.5 41.5t84 15.5q75 0 110 -35t35 -96v-72h-94v50q0 35 -13 55t-45 20q-39 0 -50.5 -29t-11.5 -95v-354q0 -32 4.5 -51.5t13 -30.5t19 -14.5t22.5 -3.5q28 0 44.5 20.5t16.5 65.5v50h94v-80q0 -29 -6.5 -53.5 t-23.5 -42.5t-45.5 -28t-71.5 -10q-47 0 -79 12t-51.5 35.5t-28 56.5t-8.5 75v365z" />
<glyph unicode="&#x107;" horiz-adv-x="296" d="M192 713h100l-109 -145h-60zM21 373q0 64 34.5 99.5t97.5 35.5q64 0 93 -28t29 -72v-75h-88v55q0 29 -9.5 41.5t-26.5 12.5t-26.5 -15t-9.5 -44v-276q0 -47 36 -47t36 49v60h88v-76q0 -29 -11 -48t-28 -30t-38.5 -16t-43.5 -5q-27 0 -51 6.5t-42 21t-29 38.5t-11 59v254z " />
<glyph unicode="&#x108;" horiz-adv-x="352" d="M156 933h78l98 -145h-72l-65 85l-65 -85h-72zM26 538q0 38 7.5 72.5t26 60.5t51.5 41.5t84 15.5q75 0 110 -35t35 -96v-72h-94v50q0 35 -13 55t-45 20q-39 0 -50.5 -29t-11.5 -95v-354q0 -32 4.5 -51.5t13 -30.5t19 -14.5t22.5 -3.5q28 0 44.5 20.5t16.5 65.5v50h94v-80 q0 -29 -6.5 -53.5t-23.5 -42.5t-45.5 -28t-71.5 -10q-47 0 -79 12t-51.5 35.5t-28 56.5t-8.5 75v365z" />
<glyph unicode="&#x109;" horiz-adv-x="296" d="M114 713h78l98 -145h-72l-65 85l-65 -85h-72zM21 373q0 64 34.5 99.5t97.5 35.5q64 0 93 -28t29 -72v-75h-88v55q0 29 -9.5 41.5t-26.5 12.5t-26.5 -15t-9.5 -44v-276q0 -47 36 -47t36 49v60h88v-76q0 -29 -11 -48t-28 -30t-38.5 -16t-43.5 -5q-27 0 -51 6.5t-42 21 t-29 38.5t-11 59v254z" />
<glyph unicode="&#x10a;" horiz-adv-x="352" d="M156 888h78v-100h-78v100zM26 538q0 38 7.5 72.5t26 60.5t51.5 41.5t84 15.5q75 0 110 -35t35 -96v-72h-94v50q0 35 -13 55t-45 20q-39 0 -50.5 -29t-11.5 -95v-354q0 -32 4.5 -51.5t13 -30.5t19 -14.5t22.5 -3.5q28 0 44.5 20.5t16.5 65.5v50h94v-80q0 -29 -6.5 -53.5 t-23.5 -42.5t-45.5 -28t-71.5 -10q-47 0 -79 12t-51.5 35.5t-28 56.5t-8.5 75v365z" />
<glyph unicode="&#x10b;" horiz-adv-x="296" d="M114 668h78v-100h-78v100zM21 373q0 64 34.5 99.5t97.5 35.5q64 0 93 -28t29 -72v-75h-88v55q0 29 -9.5 41.5t-26.5 12.5t-26.5 -15t-9.5 -44v-276q0 -47 36 -47t36 49v60h88v-76q0 -29 -11 -48t-28 -30t-38.5 -16t-43.5 -5q-27 0 -51 6.5t-42 21t-29 38.5t-11 59v254z " />
<glyph unicode="&#x10c;" horiz-adv-x="352" d="M234 788h-78l-98 145h72l65 -85l65 85h72zM26 538q0 38 7.5 72.5t26 60.5t51.5 41.5t84 15.5q75 0 110 -35t35 -96v-72h-94v50q0 35 -13 55t-45 20q-39 0 -50.5 -29t-11.5 -95v-354q0 -32 4.5 -51.5t13 -30.5t19 -14.5t22.5 -3.5q28 0 44.5 20.5t16.5 65.5v50h94v-80 q0 -29 -6.5 -53.5t-23.5 -42.5t-45.5 -28t-71.5 -10q-47 0 -79 12t-51.5 35.5t-28 56.5t-8.5 75v365z" />
<glyph unicode="&#x10d;" horiz-adv-x="296" d="M192 568h-78l-98 145h72l65 -85l65 85h72zM21 373q0 64 34.5 99.5t97.5 35.5q64 0 93 -28t29 -72v-75h-88v55q0 29 -9.5 41.5t-26.5 12.5t-26.5 -15t-9.5 -44v-276q0 -47 36 -47t36 49v60h88v-76q0 -29 -11 -48t-28 -30t-38.5 -16t-43.5 -5q-27 0 -51 6.5t-42 21 t-29 38.5t-11 59v254z" />
<glyph unicode="&#x10e;" horiz-adv-x="407" d="M244 788h-78l-98 145h72l65 -85l65 85h72zM137 84h48q28 0 45 8t26.5 27t13 50t3.5 78v248q0 40 -3 67.5t-13 44t-29 24t-51 7.5h-40v-554zM37 722h161q61 0 96 -11.5t52.5 -41.5t22 -81t4.5 -130v-215q0 -69 -7.5 -116t-28.5 -75t-58.5 -40t-96.5 -12h-145v722z" />
<glyph unicode="&#x10f;" d="M412 722h106l-56 -178h-72zM127 126q0 -44 11 -58t30 -14q14 0 26 12.5t12 40.5v253q0 47 -11.5 64.5t-31.5 17.5q-16 0 -26 -13.5t-10 -54.5v-248zM33 392q0 56 23 86t65 30q11 0 23.5 -2.5t23.5 -7.5q24 -11 36 -32h2v256h94v-722h-88v36h-2q-16 -20 -40 -31t-49 -11 q-42 0 -65 30t-23 86v282z" />
<glyph unicode="&#x110;" horiz-adv-x="407" d="M37 328h-37v84h37v310h161q61 0 96 -11.5t52.5 -41.5t22 -81t4.5 -130v-215q0 -69 -7.5 -116t-28.5 -75t-58.5 -40t-96.5 -12h-145v328zM137 84h48q28 0 45 8t26.5 27t13 50t3.5 78v248q0 40 -3 67.5t-13 44t-29 24t-51 7.5h-40v-226h67v-84h-67v-244z" />
<glyph unicode="&#x112;" horiz-adv-x="315" d="M41 842h264v-54h-264v54zM37 722h272v-84h-172v-226h162v-84h-162v-244h172v-84h-272v722z" />
<glyph unicode="&#x113;" d="M34 622h264v-54h-264v54zM30 373q0 64 35 99.5t101 35.5q28 0 53 -6.5t43.5 -21t29.5 -38.5t11 -59v-162h-179v-107q0 -35 11.5 -47.5t34.5 -12.5q26 0 35.5 17.5t9.5 47.5v46h88v-71q0 -19 -7.5 -37t-24 -32t-43 -22.5t-65.5 -8.5q-27 0 -51 6.5t-42 21t-29 38.5t-11 59 v254zM124 287h91v98q0 34 -10.5 48.5t-34.5 14.5q-26 0 -36 -14t-10 -41v-106z" />
<glyph unicode="&#x114;" horiz-adv-x="315" d="M98 918q3 -26 21 -47q10 -10 23.5 -16.5t30.5 -6.5t30.5 6.5t23 16.5t15 22.5t6.5 24.5h49q-2 -22 -8.5 -44.5t-20.5 -42.5q-14 -19 -37 -31t-58 -12t-58 12t-37 31t-21 42t-8 45h49zM37 722h272v-84h-172v-226h162v-84h-162v-244h172v-84h-272v722z" />
<glyph unicode="&#x115;" d="M91 698q3 -26 21 -47q10 -10 23.5 -16.5t30.5 -6.5t30.5 6.5t23 16.5t15 22.5t6.5 24.5h49q-2 -22 -8.5 -44.5t-20.5 -42.5q-14 -19 -37 -31t-58 -12t-58 12t-37 31t-21 42t-8 45h49zM30 373q0 64 35 99.5t101 35.5q28 0 53 -6.5t43.5 -21t29.5 -38.5t11 -59v-162h-179 v-107q0 -35 11.5 -47.5t34.5 -12.5q26 0 35.5 17.5t9.5 47.5v46h88v-71q0 -19 -7.5 -37t-24 -32t-43 -22.5t-65.5 -8.5q-27 0 -51 6.5t-42 21t-29 38.5t-11 59v254zM124 287h91v98q0 34 -10.5 48.5t-34.5 14.5q-26 0 -36 -14t-10 -41v-106z" />
<glyph unicode="&#x116;" horiz-adv-x="315" d="M134 888h78v-100h-78v100zM37 722h272v-84h-172v-226h162v-84h-162v-244h172v-84h-272v722z" />
<glyph unicode="&#x117;" d="M127 668h78v-100h-78v100zM30 373q0 64 35 99.5t101 35.5q28 0 53 -6.5t43.5 -21t29.5 -38.5t11 -59v-162h-179v-107q0 -35 11.5 -47.5t34.5 -12.5q26 0 35.5 17.5t9.5 47.5v46h88v-71q0 -19 -7.5 -37t-24 -32t-43 -22.5t-65.5 -8.5q-27 0 -51 6.5t-42 21t-29 38.5 t-11 59v254zM124 287h91v98q0 34 -10.5 48.5t-34.5 14.5q-26 0 -36 -14t-10 -41v-106z" />
<glyph unicode="&#x118;" horiz-adv-x="315" d="M242 -199q-11 -6 -28 -11t-37 -5q-51 0 -71 19.5t-20 51.5q0 40 24 82t63 69h46q-34 -42 -47.5 -74t-13.5 -57q0 -20 10.5 -32.5t30.5 -12.5q9 0 17 4t16 9zM37 722h272v-84h-172v-226h162v-84h-162v-244h172v-84h-272v722z" />
<glyph unicode="&#x119;" d="M209 -205q-11 -6 -28 -11t-37 -5q-51 0 -71 19.5t-20 51.5q0 40 24 82t63 69h46q-34 -42 -47.5 -74t-13.5 -57q0 -20 10.5 -32.5t30.5 -12.5q9 0 17 4t16 9zM30 373q0 64 35 99.5t101 35.5q28 0 53 -6.5t43.5 -21t29.5 -38.5t11 -59v-162h-179v-107q0 -35 11.5 -47.5 t34.5 -12.5q26 0 35.5 17.5t9.5 47.5v46h88v-71q0 -19 -7.5 -37t-24 -32t-43 -22.5t-65.5 -8.5q-27 0 -51 6.5t-42 21t-29 38.5t-11 59v254zM124 287h91v98q0 34 -10.5 48.5t-34.5 14.5q-26 0 -36 -14t-10 -41v-106z" />
<glyph unicode="&#x11a;" horiz-adv-x="315" d="M212 788h-78l-98 145h72l65 -85l65 85h72zM37 722h272v-84h-172v-226h162v-84h-162v-244h172v-84h-272v722z" />
<glyph unicode="&#x11b;" d="M205 568h-78l-98 145h72l65 -85l65 85h72zM30 373q0 64 35 99.5t101 35.5q28 0 53 -6.5t43.5 -21t29.5 -38.5t11 -59v-162h-179v-107q0 -35 11.5 -47.5t34.5 -12.5q26 0 35.5 17.5t9.5 47.5v46h88v-71q0 -19 -7.5 -37t-24 -32t-43 -22.5t-65.5 -8.5q-27 0 -51 6.5t-42 21 t-29 38.5t-11 59v254zM124 287h91v98q0 34 -10.5 48.5t-34.5 14.5q-26 0 -36 -14t-10 -41v-106z" />
<glyph unicode="&#x11c;" horiz-adv-x="407" d="M168 933h78l98 -145h-72l-65 85l-65 -85h-72zM270 531v37q0 38 -17.5 60t-46.5 22q-35 0 -52 -30.5t-17 -88.5v-364q0 -44 19 -69.5t50 -25.5q21 0 37.5 2.5t26.5 4.5v212h-66v84h166v-363q-15 -3 -34.5 -6.5t-41.5 -6t-45 -4t-44 -1.5q-48 0 -80 12t-51.5 35.5t-28 56.5 t-8.5 75v365q0 51 8.5 87t28 59t52.5 33.5t81 10.5q81 0 122 -31t41 -100v-66h-100z" />
<glyph unicode="&#x11d;" d="M82 713h78l98 -145h-72l-65 85l-65 -85h-72zM42 -46h94v-39q0 -22 7.5 -32.5t27.5 -10.5q18 0 26.5 12.5t8.5 44.5v125h-2q-14 -23 -34.5 -32.5t-48.5 -9.5q-42 0 -65 30t-23 86v264q0 56 23 86t65 30q32 0 51 -11.5t38 -39.5h2v45h88v-551q0 -67 -33 -103t-102 -36 q-26 0 -48 5t-39 17t-26.5 31t-9.5 47v42zM127 150q0 -44 11 -58t30 -14q14 0 26 12.5t12 40.5v258q0 53 -42 53q-17 0 -27 -10t-10 -42v-240z" />
<glyph unicode="&#x11e;" horiz-adv-x="407" d="M132 918q3 -26 21 -47q10 -10 23.5 -16.5t30.5 -6.5t30.5 6.5t23 16.5t15 22.5t6.5 24.5h49q-2 -22 -8.5 -44.5t-20.5 -42.5q-14 -19 -37 -31t-58 -12t-58 12t-37 31t-21 42t-8 45h49zM270 531v37q0 38 -17.5 60t-46.5 22q-35 0 -52 -30.5t-17 -88.5v-364q0 -44 19 -69.5 t50 -25.5q21 0 37.5 2.5t26.5 4.5v212h-66v84h166v-363q-15 -3 -34.5 -6.5t-41.5 -6t-45 -4t-44 -1.5q-48 0 -80 12t-51.5 35.5t-28 56.5t-8.5 75v365q0 51 8.5 87t28 59t52.5 33.5t81 10.5q81 0 122 -31t41 -100v-66h-100z" />
<glyph unicode="&#x11f;" d="M46 698q3 -26 21 -47q10 -10 23.5 -16.5t30.5 -6.5t30.5 6.5t23 16.5t15 22.5t6.5 24.5h49q-2 -22 -8.5 -44.5t-20.5 -42.5q-14 -19 -37 -31t-58 -12t-58 12t-37 31t-21 42t-8 45h49zM42 -46h94v-39q0 -22 7.5 -32.5t27.5 -10.5q18 0 26.5 12.5t8.5 44.5v125h-2 q-14 -23 -34.5 -32.5t-48.5 -9.5q-42 0 -65 30t-23 86v264q0 56 23 86t65 30q32 0 51 -11.5t38 -39.5h2v45h88v-551q0 -67 -33 -103t-102 -36q-26 0 -48 5t-39 17t-26.5 31t-9.5 47v42zM127 150q0 -44 11 -58t30 -14q14 0 26 12.5t12 40.5v258q0 53 -42 53q-17 0 -27 -10 t-10 -42v-240z" />
<glyph unicode="&#x120;" horiz-adv-x="407" d="M168 888h78v-100h-78v100zM270 531v37q0 38 -17.5 60t-46.5 22q-35 0 -52 -30.5t-17 -88.5v-364q0 -44 19 -69.5t50 -25.5q21 0 37.5 2.5t26.5 4.5v212h-66v84h166v-363q-15 -3 -34.5 -6.5t-41.5 -6t-45 -4t-44 -1.5q-48 0 -80 12t-51.5 35.5t-28 56.5t-8.5 75v365 q0 51 8.5 87t28 59t52.5 33.5t81 10.5q81 0 122 -31t41 -100v-66h-100z" />
<glyph unicode="&#x121;" d="M82 668h78v-100h-78v100zM42 -46h94v-39q0 -22 7.5 -32.5t27.5 -10.5q18 0 26.5 12.5t8.5 44.5v125h-2q-14 -23 -34.5 -32.5t-48.5 -9.5q-42 0 -65 30t-23 86v264q0 56 23 86t65 30q32 0 51 -11.5t38 -39.5h2v45h88v-551q0 -67 -33 -103t-102 -36q-26 0 -48 5t-39 17 t-26.5 31t-9.5 47v42zM127 150q0 -44 11 -58t30 -14q14 0 26 12.5t12 40.5v258q0 53 -42 53q-17 0 -27 -10t-10 -42v-240z" />
<glyph unicode="&#x122;" horiz-adv-x="407" d="M163 -66h106l-56 -178h-72zM270 531v37q0 38 -17.5 60t-46.5 22q-35 0 -52 -30.5t-17 -88.5v-364q0 -44 19 -69.5t50 -25.5q21 0 37.5 2.5t26.5 4.5v212h-66v84h166v-363q-15 -3 -34.5 -6.5t-41.5 -6t-45 -4t-44 -1.5q-48 0 -80 12t-51.5 35.5t-28 56.5t-8.5 75v365 q0 51 8.5 87t28 59t52.5 33.5t81 10.5q81 0 122 -31t41 -100v-66h-100z" />
<glyph unicode="&#x124;" horiz-adv-x="407" d="M165 933h78l98 -145h-72l-65 85l-65 -85h-72zM37 722h100v-310h133v310h100v-722h-100v328h-133v-328h-100v722z" />
<glyph unicode="&#x125;" d="M127 927h78l98 -145h-72l-65 85l-65 -85h-72zM34 722h94v-262h2q10 23 33 36q22 12 48 12q18 0 34 -5t28 -16.5t19 -30.5t7 -47v-409h-94v391q0 20 -7 32.5t-29 12.5q-17 0 -29 -12t-12 -41v-383h-94v722z" />
<glyph unicode="&#x128;" horiz-adv-x="168" d="M-63 788q1 17 6 35.5t16 35.5t29 27.5t44 10.5q17 0 33.5 -6t30.5 -12l28 -13q12 -6 21 -6q12 0 21 14.5t11 28.5h54q-1 -17 -6 -36t-16.5 -35t-29 -27t-43.5 -11q-17 0 -33.5 6t-30.5 13l-28 12q-12 6 -21 6q-12 0 -21 -14.5t-11 -28.5h-54zM34 722h100v-722h-100v722z " />
<glyph unicode="&#x129;" horiz-adv-x="168" d="M-63 568q1 17 6 35.5t16 35.5t29 27.5t44 10.5q17 0 33.5 -6t30.5 -12l28 -13q12 -6 21 -6q12 0 21 14.5t11 28.5h54q-1 -17 -6 -36t-16.5 -35t-29 -27t-43.5 -11q-17 0 -33.5 6t-30.5 13l-28 12q-12 6 -21 6q-12 0 -21 -14.5t-11 -28.5h-54zM37 502h94v-502h-94v502z " />
<glyph unicode="&#x12a;" horiz-adv-x="168" d="M-48 842h264v-54h-264v54zM34 722h100v-722h-100v722z" />
<glyph unicode="&#x12b;" horiz-adv-x="168" d="M-48 622h264v-54h-264v54zM37 502h94v-502h-94v502z" />
<glyph unicode="&#x12c;" horiz-adv-x="168" d="M9 918q3 -26 21 -47q10 -10 23.5 -16.5t30.5 -6.5t30.5 6.5t23 16.5t15 22.5t6.5 24.5h49q-2 -22 -8.5 -44.5t-20.5 -42.5q-14 -19 -37 -31t-58 -12t-58 12t-37 31t-21 42t-8 45h49zM34 722h100v-722h-100v722z" />
<glyph unicode="&#x12d;" horiz-adv-x="168" d="M9 698q3 -26 21 -47q10 -10 23.5 -16.5t30.5 -6.5t30.5 6.5t23 16.5t15 22.5t6.5 24.5h49q-2 -22 -8.5 -44.5t-20.5 -42.5q-14 -19 -37 -31t-58 -12t-58 12t-37 31t-21 42t-8 45h49zM37 502h94v-502h-94v502z" />
<glyph unicode="&#x12e;" horiz-adv-x="168" d="M130 -199q-11 -6 -28 -11t-37 -5q-51 0 -71 19.5t-20 51.5q0 40 24 82t63 69h46q-34 -42 -47.5 -74t-13.5 -57q0 -20 10.5 -32.5t30.5 -12.5q9 0 17 4t16 9zM34 722h100v-722h-100v722z" />
<glyph unicode="&#x12f;" horiz-adv-x="168" d="M130 -199q-11 -6 -28 -11t-37 -5q-51 0 -71 19.5t-20 51.5q0 40 24 82t63 69h46q-34 -42 -47.5 -74t-13.5 -57q0 -20 10.5 -32.5t30.5 -12.5q9 0 17 4t16 9zM37 502h94v-502h-94v502zM37 722h94v-100h-94v100z" />
<glyph unicode="&#x130;" horiz-adv-x="168" d="M45 888h78v-100h-78v100zM34 722h100v-722h-100v722z" />
<glyph unicode="&#x131;" horiz-adv-x="168" d="M37 502h94v-502h-94v502z" />
<glyph unicode="&#x132;" horiz-adv-x="483" d="M176 211h94v-71q0 -11 1 -23t5 -22t11.5 -16.5t20.5 -6.5q14 0 22 6t12.5 16t5.5 23t1 27v578h100v-589q0 -66 -33 -102.5t-108 -36.5q-31 0 -55.5 5.5t-41.5 19.5t-26 38t-9 61v93zM34 722h100v-722h-100v722z" />
<glyph unicode="&#x133;" horiz-adv-x="336" d="M205 502h94v-594q0 -26 -5.5 -44t-21.5 -29.5t-43.5 -17t-72.5 -5.5v72q29 1 39 8.5t10 33.5v576zM205 722h94v-100h-94v100zM37 502h94v-502h-94v502zM37 722h94v-100h-94v100z" />
<glyph unicode="&#x134;" horiz-adv-x="315" d="M192 933h78l98 -145h-72l-65 85l-65 -85h-72zM8 211h94v-71q0 -11 1 -23t5 -22t11.5 -16.5t20.5 -6.5q14 0 22 6t12.5 16t5.5 23t1 27v578h100v-589q0 -66 -33 -102.5t-108 -36.5q-31 0 -55.5 5.5t-41.5 19.5t-26 38t-9 61v93z" />
<glyph unicode="&#x135;" horiz-adv-x="168" d="M45 927h78l98 -145h-72l-65 85l-65 -85h-72zM37 502h94v-594q0 -26 -5.5 -44t-21.5 -29.5t-43.5 -17t-72.5 -5.5v72q29 1 39 8.5t10 33.5v576zM37 722h94v-100h-94v100z" />
<glyph unicode="&#x136;" horiz-adv-x="407" d="M181 -60h106l-56 -178h-72zM37 722h100v-329h2l158 329h100l-168 -339l180 -383h-112l-158 361h-2v-361h-100v722z" />
<glyph unicode="&#x137;" horiz-adv-x="315" d="M133 -60h106l-56 -178h-72zM34 722h94v-433h2l85 213h88l-91 -225l103 -277h-100l-85 258h-2v-258h-94v722z" />
<glyph unicode="&#x139;" horiz-adv-x="315" d="M210 933h100l-109 -145h-60zM37 722h100v-638h168v-84h-268v722z" />
<glyph unicode="&#x13a;" horiz-adv-x="168" d="M123 927h100l-109 -145h-60zM37 722h94v-722h-94v722z" />
<glyph unicode="&#x13b;" horiz-adv-x="315" d="M129 -60h106l-56 -178h-72zM37 722h100v-638h168v-84h-268v722z" />
<glyph unicode="&#x13c;" horiz-adv-x="168" d="M42 -60h106l-56 -178h-72zM37 722h94v-722h-94v722z" />
<glyph unicode="&#x13d;" horiz-adv-x="315" d="M417 728h106l-56 -178h-72zM37 722h100v-638h168v-84h-268v722z" />
<glyph unicode="&#x13e;" horiz-adv-x="168" d="M243 722h106l-56 -178h-72zM37 722h94v-722h-94v722z" />
<glyph unicode="&#x13f;" horiz-adv-x="315" d="M101 364q0 29 20.5 49.5t49.5 20.5t49.5 -20.5t20.5 -49.5t-20.5 -49.5t-49.5 -20.5t-49.5 20.5t-20.5 49.5zM37 722h100v-638h168v-84h-268v722z" />
<glyph unicode="&#x140;" horiz-adv-x="354" d="M191 300q0 29 20.5 49.5t49.5 20.5t49.5 -20.5t20.5 -49.5t-20.5 -49.5t-49.5 -20.5t-49.5 20.5t-20.5 49.5zM37 722h94v-722h-94v722z" />
<glyph unicode="&#x141;" horiz-adv-x="315" d="M37 283l-37 -23v90l37 23v349h100v-287l97 61v-90l-97 -61v-261h168v-84h-268v283z" />
<glyph unicode="&#x142;" horiz-adv-x="168" d="M37 287l-37 -23v78l37 23v357h94v-299l37 26v-78l-37 -26v-345h-94v287z" />
<glyph unicode="&#x143;" horiz-adv-x="426" d="M252 933h100l-109 -145h-60zM37 722h138l118 -600h2v600h94v-722h-144l-118 616h-2v-616h-88v722z" />
<glyph unicode="&#x144;" d="M206 713h100l-109 -145h-60zM34 502h88v-42h2q14 23 36 35q22 13 51 13q18 0 34 -5t28 -16.5t19 -30.5t7 -47v-409h-94v391q0 20 -7 32.5t-29 12.5q-17 0 -29 -12t-12 -41v-383h-94v502z" />
<glyph unicode="&#x145;" horiz-adv-x="426" d="M171 -60h106l-56 -178h-72zM37 722h138l118 -600h2v600h94v-722h-144l-118 616h-2v-616h-88v722z" />
<glyph unicode="&#x146;" d="M125 -60h106l-56 -178h-72zM34 502h88v-42h2q14 23 36 35q22 13 51 13q18 0 34 -5t28 -16.5t19 -30.5t7 -47v-409h-94v391q0 20 -7 32.5t-29 12.5q-17 0 -29 -12t-12 -41v-383h-94v502z" />
<glyph unicode="&#x147;" horiz-adv-x="426" d="M252 788h-78l-98 145h72l65 -85l65 85h72zM37 722h138l118 -600h2v600h94v-722h-144l-118 616h-2v-616h-88v722z" />
<glyph unicode="&#x148;" d="M205 568h-78l-98 145h72l65 -85l65 85h72zM34 502h88v-42h2q14 23 36 35q22 13 51 13q18 0 34 -5t28 -16.5t19 -30.5t7 -47v-409h-94v391q0 20 -7 32.5t-29 12.5q-17 0 -29 -12t-12 -41v-383h-94v502z" />
<glyph unicode="&#x14c;" horiz-adv-x="407" d="M71 842h264v-54h-264v54zM134 167q0 -47 19 -71t50 -24q32 0 51 24t19 71v379q0 104 -70 104q-69 0 -69 -104v-379zM34 538q0 38 7.5 72.5t26 60.5t51.5 41.5t84 15.5q48 0 81 -12t52.5 -35.5t28 -56.5t8.5 -75v-365q0 -38 -7.5 -72.5t-26.5 -60.5t-52 -41.5t-84 -15.5 q-48 0 -80.5 12t-52 35.5t-28 56.5t-8.5 75v365z" />
<glyph unicode="&#x14d;" d="M34 622h264v-54h-264v54zM33 373q0 64 35 99.5t98 35.5q27 0 51.5 -6.5t42.5 -21t29 -38.5t11 -59v-254q0 -64 -35 -99.5t-98 -35.5q-27 0 -51.5 6.5t-42.5 21t-29 38.5t-11 59v254zM127 123q0 -30 8.5 -46.5t31.5 -16.5q22 0 30.5 16.5t8.5 46.5v256q0 30 -8.5 46.5 t-30.5 16.5q-23 0 -31.5 -16.5t-8.5 -46.5v-256z" />
<glyph unicode="&#x14e;" horiz-adv-x="407" d="M128 918q3 -26 21 -47q10 -10 23.5 -16.5t30.5 -6.5t30.5 6.5t23 16.5t15 22.5t6.5 24.5h49q-2 -22 -8.5 -44.5t-20.5 -42.5q-14 -19 -37 -31t-58 -12t-58 12t-37 31t-21 42t-8 45h49zM134 167q0 -47 19 -71t50 -24q32 0 51 24t19 71v379q0 104 -70 104q-69 0 -69 -104 v-379zM34 538q0 38 7.5 72.5t26 60.5t51.5 41.5t84 15.5q48 0 81 -12t52.5 -35.5t28 -56.5t8.5 -75v-365q0 -38 -7.5 -72.5t-26.5 -60.5t-52 -41.5t-84 -15.5q-48 0 -80.5 12t-52 35.5t-28 56.5t-8.5 75v365z" />
<glyph unicode="&#x14f;" d="M91 698q3 -26 21 -47q10 -10 23.5 -16.5t30.5 -6.5t30.5 6.5t23 16.5t15 22.5t6.5 24.5h49q-2 -22 -8.5 -44.5t-20.5 -42.5q-14 -19 -37 -31t-58 -12t-58 12t-37 31t-21 42t-8 45h49zM33 373q0 64 35 99.5t98 35.5q27 0 51.5 -6.5t42.5 -21t29 -38.5t11 -59v-254 q0 -64 -35 -99.5t-98 -35.5q-27 0 -51.5 6.5t-42.5 21t-29 38.5t-11 59v254zM127 123q0 -30 8.5 -46.5t31.5 -16.5q22 0 30.5 16.5t8.5 46.5v256q0 30 -8.5 46.5t-30.5 16.5q-23 0 -31.5 -16.5t-8.5 -46.5v-256z" />
<glyph unicode="&#x150;" horiz-adv-x="407" d="M162 933h100l-109 -145h-60zM321 933h100l-109 -145h-60zM134 167q0 -47 19 -71t50 -24q32 0 51 24t19 71v379q0 104 -70 104q-69 0 -69 -104v-379zM34 538q0 38 7.5 72.5t26 60.5t51.5 41.5t84 15.5q48 0 81 -12t52.5 -35.5t28 -56.5t8.5 -75v-365q0 -38 -7.5 -72.5 t-26.5 -60.5t-52 -41.5t-84 -15.5q-48 0 -80.5 12t-52 35.5t-28 56.5t-8.5 75v365z" />
<glyph unicode="&#x151;" d="M126 713h100l-109 -145h-60zM285 713h100l-109 -145h-60zM33 373q0 64 35 99.5t98 35.5q27 0 51.5 -6.5t42.5 -21t29 -38.5t11 -59v-254q0 -64 -35 -99.5t-98 -35.5q-27 0 -51.5 6.5t-42.5 21t-29 38.5t-11 59v254zM127 123q0 -30 8.5 -46.5t31.5 -16.5q22 0 30.5 16.5 t8.5 46.5v256q0 30 -8.5 46.5t-30.5 16.5q-23 0 -31.5 -16.5t-8.5 -46.5v-256z" />
<glyph unicode="&#x152;" horiz-adv-x="574" d="M34 547q0 94 36 137.5t104 43.5q31 0 69 -3q20 -1 37.5 -2t31.5 -1h237v-84h-172v-226h162v-84h-162v-244h172v-84h-237q-14 0 -31.5 -0.5t-37.5 -2.5l-37 -2q-18 -1 -32 -1q-68 0 -104 43t-36 119v391zM134 165q0 -45 16 -66t63 -21q43 0 64 3v560q-11 2 -23.5 2.5 t-32.5 0.5q-23 0 -39.5 -5.5t-27 -20t-15.5 -41t-5 -68.5v-344z" />
<glyph unicode="&#x153;" horiz-adv-x="481" d="M119 117q0 -30 8.5 -46.5t31.5 -16.5q22 0 30.5 16.5t8.5 46.5v262q0 30 -8.5 46.5t-30.5 16.5q-23 0 -31.5 -16.5t-8.5 -46.5v-262zM368 287v85q0 41 -8.5 55.5t-31.5 14.5t-29.5 -14.5t-6.5 -46.5v-94h76zM25 383q0 55 29 90t90 35q35 0 60 -9t39 -36q15 22 37.5 33.5 t60.5 11.5q58 0 86.5 -33t28.5 -96v-158h-164v-110q0 -34 12 -45.5t26 -11.5q15 0 26.5 12.5t11.5 48.5v38h88v-30q0 -71 -34 -100t-87 -29q-33 0 -54.5 10.5t-38.5 33.5q-12 -20 -37.5 -32t-63.5 -12q-53 0 -84.5 29t-31.5 83v277z" />
<glyph unicode="&#x154;" horiz-adv-x="389" d="M154 933h100l-109 -145h-60zM37 722h155q55 0 87 -8.5t48.5 -30.5t21 -60.5t4.5 -97.5q0 -36 -3.5 -63t-13.5 -46t-28.5 -32.5t-49.5 -22.5v-2q51 -5 71 -32t20 -78v-157q0 -20 0.5 -44.5t5.5 -47.5h-94q-8 14 -10 28.5t-2 36.5v163q0 25 -3 42t-11.5 26.5t-23.5 13.5 t-40 4h-34v-314h-100v722zM137 398h26q30 0 47.5 4t27 17t12.5 37t3 65q0 40 -2 63.5t-9 35.5t-20.5 15t-36.5 3h-48v-240z" />
<glyph unicode="&#x155;" horiz-adv-x="204" d="M160 713h100l-109 -145h-60zM34 502h88v-52h2q8 18 16 29t17 17.5t21.5 9t29.5 2.5v-94q-35 0 -57.5 -13t-22.5 -52v-349h-94v502z" />
<glyph unicode="&#x156;" horiz-adv-x="389" d="M154 -60h106l-56 -178h-72zM37 722h155q55 0 87 -8.5t48.5 -30.5t21 -60.5t4.5 -97.5q0 -36 -3.5 -63t-13.5 -46t-28.5 -32.5t-49.5 -22.5v-2q51 -5 71 -32t20 -78v-157q0 -20 0.5 -44.5t5.5 -47.5h-94q-8 14 -10 28.5t-2 36.5v163q0 25 -3 42t-11.5 26.5t-23.5 13.5 t-40 4h-34v-314h-100v722zM137 398h26q30 0 47.5 4t27 17t12.5 37t3 65q0 40 -2 63.5t-9 35.5t-20.5 15t-36.5 3h-48v-240z" />
<glyph unicode="&#x157;" horiz-adv-x="204" d="M39 -60h106l-56 -178h-72zM34 502h88v-52h2q8 18 16 29t17 17.5t21.5 9t29.5 2.5v-94q-35 0 -57.5 -13t-22.5 -52v-349h-94v502z" />
<glyph unicode="&#x158;" horiz-adv-x="389" d="M153 788h-78l-98 145h72l65 -85l65 85h72zM37 722h155q55 0 87 -8.5t48.5 -30.5t21 -60.5t4.5 -97.5q0 -36 -3.5 -63t-13.5 -46t-28.5 -32.5t-49.5 -22.5v-2q51 -5 71 -32t20 -78v-157q0 -20 0.5 -44.5t5.5 -47.5h-94q-8 14 -10 28.5t-2 36.5v163q0 25 -3 42t-11.5 26.5 t-23.5 13.5t-40 4h-34v-314h-100v722zM137 398h26q30 0 47.5 4t27 17t12.5 37t3 65q0 40 -2 63.5t-9 35.5t-20.5 15t-36.5 3h-48v-240z" />
<glyph unicode="&#x159;" horiz-adv-x="204" d="M160 568h-78l-98 145h72l65 -85l65 85h72zM34 502h88v-52h2q8 18 16 29t17 17.5t21.5 9t29.5 2.5v-94q-35 0 -57.5 -13t-22.5 -52v-349h-94v502z" />
<glyph unicode="&#x15a;" horiz-adv-x="370" d="M229 933h100l-109 -145h-60zM26 209h100v-59q0 -36 14 -57t44 -21q40 0 53 24t13 59q0 23 -2 40t-12.5 36t-32 44t-60.5 64l-45 47q-22 24 -37.5 50t-25 56t-9.5 67q0 89 41 129t123 40q41 0 70 -11.5t47 -28.5q13 -12 21 -33t8 -59v-68h-94v57q0 31 -13.5 48t-42.5 17 q-31 0 -45.5 -18.5t-14.5 -60.5q0 -18 3 -34.5t13.5 -35.5t30.5 -44t55 -61q37 -38 59.5 -65.5t35 -52t17 -49t4.5 -57.5q0 -85 -37 -131.5t-126 -46.5q-69 0 -112 30.5t-43 98.5v86z" />
<glyph unicode="&#x15b;" horiz-adv-x="296" d="M198 713h100l-109 -145h-60zM182 340v48q0 29 -7 41.5t-26 12.5t-25.5 -10t-6.5 -36q0 -19 1.5 -31t8.5 -22.5t20 -22.5l37 -33q27 -24 44 -41.5t26.5 -34t13 -36t3.5 -46.5q0 -37 -7 -62.5t-22.5 -41.5t-41.5 -23.5t-63 -7.5q-54 0 -83 24t-29 79v71h88v-69q0 -23 9 -31 t26 -8q23 0 29 13t6 43q0 20 -1.5 33t-7 24t-17 22.5t-31.5 28.5l-21 18q-28 24 -43.5 39.5t-22.5 29.5t-8.5 30t-1.5 42q0 71 33.5 98t96.5 27q107 0 107 -91v-77h-84z" />
<glyph unicode="&#x15c;" horiz-adv-x="370" d="M151 933h78l98 -145h-72l-65 85l-65 -85h-72zM26 209h100v-59q0 -36 14 -57t44 -21q40 0 53 24t13 59q0 23 -2 40t-12.5 36t-32 44t-60.5 64l-45 47q-22 24 -37.5 50t-25 56t-9.5 67q0 89 41 129t123 40q41 0 70 -11.5t47 -28.5q13 -12 21 -33t8 -59v-68h-94v57 q0 31 -13.5 48t-42.5 17q-31 0 -45.5 -18.5t-14.5 -60.5q0 -18 3 -34.5t13.5 -35.5t30.5 -44t55 -61q37 -38 59.5 -65.5t35 -52t17 -49t4.5 -57.5q0 -85 -37 -131.5t-126 -46.5q-69 0 -112 30.5t-43 98.5v86z" />
<glyph unicode="&#x15d;" horiz-adv-x="296" d="M120 713h78l98 -145h-72l-65 85l-65 -85h-72zM182 340v48q0 29 -7 41.5t-26 12.5t-25.5 -10t-6.5 -36q0 -19 1.5 -31t8.5 -22.5t20 -22.5l37 -33q27 -24 44 -41.5t26.5 -34t13 -36t3.5 -46.5q0 -37 -7 -62.5t-22.5 -41.5t-41.5 -23.5t-63 -7.5q-54 0 -83 24t-29 79v71h88 v-69q0 -23 9 -31t26 -8q23 0 29 13t6 43q0 20 -1.5 33t-7 24t-17 22.5t-31.5 28.5l-21 18q-28 24 -43.5 39.5t-22.5 29.5t-8.5 30t-1.5 42q0 71 33.5 98t96.5 27q107 0 107 -91v-77h-84z" />
<glyph unicode="&#x15e;" horiz-adv-x="370" d="M126 -142q10 -5 20.5 -8.5t27.5 -3.5q26 0 35.5 12t9.5 23q0 17 -13.5 24.5t-24.5 7.5q-24 0 -44 -10l25 97h39l-13 -51l2 -2q5 2 12 2h15q27 0 47.5 -16t20.5 -47q0 -32 -27 -54t-70 -22q-23 0 -42.5 5.5t-27.5 11.5zM26 209h100v-59q0 -36 14 -57t44 -21q40 0 53 24 t13 59q0 23 -2 40t-12.5 36t-32 44t-60.5 64l-45 47q-22 24 -37.5 50t-25 56t-9.5 67q0 89 41 129t123 40q41 0 70 -11.5t47 -28.5q13 -12 21 -33t8 -59v-68h-94v57q0 31 -13.5 48t-42.5 17q-31 0 -45.5 -18.5t-14.5 -60.5q0 -18 3 -34.5t13.5 -35.5t30.5 -44t55 -61 q37 -38 59.5 -65.5t35 -52t17 -49t4.5 -57.5q0 -85 -37 -131.5t-126 -46.5q-69 0 -112 30.5t-43 98.5v86z" />
<glyph unicode="&#x15f;" horiz-adv-x="296" d="M82 -142q10 -5 20.5 -8.5t27.5 -3.5q26 0 35.5 12t9.5 23q0 17 -13.5 24.5t-24.5 7.5q-24 0 -44 -10l25 97h39l-13 -51l2 -2q5 2 12 2h15q27 0 47.5 -16t20.5 -47q0 -32 -27 -54t-70 -22q-23 0 -42.5 5.5t-27.5 11.5zM182 340v48q0 29 -7 41.5t-26 12.5t-25.5 -10 t-6.5 -36q0 -19 1.5 -31t8.5 -22.5t20 -22.5l37 -33q27 -24 44 -41.5t26.5 -34t13 -36t3.5 -46.5q0 -37 -7 -62.5t-22.5 -41.5t-41.5 -23.5t-63 -7.5q-54 0 -83 24t-29 79v71h88v-69q0 -23 9 -31t26 -8q23 0 29 13t6 43q0 20 -1.5 33t-7 24t-17 22.5t-31.5 28.5l-21 18 q-28 24 -43.5 39.5t-22.5 29.5t-8.5 30t-1.5 42q0 71 33.5 98t96.5 27q107 0 107 -91v-77h-84z" />
<glyph unicode="&#x160;" horiz-adv-x="370" d="M26 209h100v-59q0 -36 14 -57t44 -21q40 0 53 24t13 59q0 23 -2 40t-12.5 36t-32 44t-60.5 64l-45 47q-22 24 -37.5 50t-25 56t-9.5 67q0 89 41 129t123 40q41 0 70 -11.5t47 -28.5q13 -12 21 -33t8 -59v-68h-94v57q0 31 -13.5 48t-42.5 17q-31 0 -45.5 -18.5 t-14.5 -60.5q0 -18 3 -34.5t13.5 -35.5t30.5 -44t55 -61q37 -38 59.5 -65.5t35 -52t17 -49t4.5 -57.5q0 -85 -37 -131.5t-126 -46.5q-69 0 -112 30.5t-43 98.5v86zM224 772h-78l-98 145h72l65 -85l65 85h72z" />
<glyph unicode="&#x161;" horiz-adv-x="296" d="M182 340v48q0 29 -7 41.5t-26 12.5t-25.5 -10t-6.5 -36q0 -19 1.5 -31t8.5 -22.5t20 -22.5l37 -33q27 -24 44 -41.5t26.5 -34t13 -36t3.5 -46.5q0 -37 -7 -62.5t-22.5 -41.5t-41.5 -23.5t-63 -7.5q-54 0 -83 24t-29 79v71h88v-69q0 -23 9 -31t26 -8q23 0 29 13t6 43 q0 20 -1.5 33t-7 24t-17 22.5t-31.5 28.5l-21 18q-28 24 -43.5 39.5t-22.5 29.5t-8.5 30t-1.5 42q0 71 33.5 98t96.5 27q107 0 107 -91v-77h-84zM187 597h-78l-98 145h72l65 -85l65 85h72z" />
<glyph unicode="&#x162;" horiz-adv-x="352" d="M120 -136q10 -5 20.5 -8.5t27.5 -3.5q26 0 35.5 12t9.5 23q0 17 -13.5 24.5t-24.5 7.5q-24 0 -44 -10l25 97h39l-13 -51l2 -2q5 2 12 2h15q27 0 47.5 -16t20.5 -47q0 -32 -27 -54t-70 -22q-23 0 -42.5 5.5t-27.5 11.5zM6 722h340v-84h-120v-638h-100v638h-120v84z" />
<glyph unicode="&#x163;" horiz-adv-x="204" d="M98 -136q10 -5 20.5 -8.5t27.5 -3.5q26 0 35.5 12t9.5 23q0 17 -13.5 24.5t-24.5 7.5q-24 0 -44 -10l25 97h39l-13 -51l2 -2q5 2 12 2h15q27 0 47.5 -16t20.5 -47q0 -32 -27 -54t-70 -22q-23 0 -42.5 5.5t-27.5 11.5zM52 436h-47v66h47v95l94 33v-128h58v-66h-58v-325 q0 -29 12 -37t33 -8q15 0 24 3v-66q-8 -1 -24.5 -2t-36.5 -1q-57 0 -79.5 16.5t-22.5 50.5v369z" />
<glyph unicode="&#x164;" horiz-adv-x="352" d="M215 788h-78l-98 145h72l65 -85l65 85h72zM6 722h340v-84h-120v-638h-100v638h-120v84z" />
<glyph unicode="&#x165;" horiz-adv-x="204" d="M258 630h106l-56 -178h-72zM52 436h-47v66h47v95l94 33v-128h58v-66h-58v-325q0 -29 12 -37t33 -8q15 0 24 3v-66q-8 -1 -24.5 -2t-36.5 -1q-57 0 -79.5 16.5t-22.5 50.5v369z" />
<glyph unicode="&#x168;" horiz-adv-x="407" d="M57 788q1 17 6 35.5t16 35.5t29 27.5t44 10.5q17 0 33.5 -6t30.5 -12l28 -13q12 -6 21 -6q12 0 21 14.5t11 28.5h54q-1 -17 -6 -36t-16.5 -35t-29 -27t-43.5 -11q-17 0 -33.5 6t-30.5 13l-28 12q-12 6 -21 6q-12 0 -21 -14.5t-11 -28.5h-54zM373 163q0 -32 -7.5 -62 t-26 -54t-51.5 -38.5t-84 -14.5t-84 14.5t-52 38.5t-26.5 54t-7.5 62v559h100v-576q0 -37 15.5 -55.5t54.5 -18.5q38 0 53.5 18.5t15.5 55.5v576h100v-559z" />
<glyph unicode="&#x169;" d="M19 568q1 17 6 35.5t16 35.5t29 27.5t44 10.5q17 0 33.5 -6t30.5 -12l28 -13q12 -6 21 -6q12 0 21 14.5t11 28.5h54q-1 -17 -6 -36t-16.5 -35t-29 -27t-43.5 -11q-17 0 -33.5 6t-30.5 13l-28 12q-12 6 -21 6q-12 0 -21 -14.5t-11 -28.5h-54zM299 0h-88v42h-2 q-14 -23 -36 -35q-22 -13 -51 -13q-18 0 -34 5t-28 16.5t-19 30.5t-7 47v409h94v-391q0 -20 7 -32.5t29 -12.5q17 0 29 12t12 41v383h94v-502z" />
<glyph unicode="&#x16a;" horiz-adv-x="407" d="M72 842h264v-54h-264v54zM373 163q0 -32 -7.5 -62t-26 -54t-51.5 -38.5t-84 -14.5t-84 14.5t-52 38.5t-26.5 54t-7.5 62v559h100v-576q0 -37 15.5 -55.5t54.5 -18.5q38 0 53.5 18.5t15.5 55.5v576h100v-559z" />
<glyph unicode="&#x16b;" d="M34 622h264v-54h-264v54zM299 0h-88v42h-2q-14 -23 -36 -35q-22 -13 -51 -13q-18 0 -34 5t-28 16.5t-19 30.5t-7 47v409h94v-391q0 -20 7 -32.5t29 -12.5q17 0 29 12t12 41v383h94v-502z" />
<glyph unicode="&#x16c;" horiz-adv-x="407" d="M129 918q3 -26 21 -47q10 -10 23.5 -16.5t30.5 -6.5t30.5 6.5t23 16.5t15 22.5t6.5 24.5h49q-2 -22 -8.5 -44.5t-20.5 -42.5q-14 -19 -37 -31t-58 -12t-58 12t-37 31t-21 42t-8 45h49zM373 163q0 -32 -7.5 -62t-26 -54t-51.5 -38.5t-84 -14.5t-84 14.5t-52 38.5t-26.5 54 t-7.5 62v559h100v-576q0 -37 15.5 -55.5t54.5 -18.5q38 0 53.5 18.5t15.5 55.5v576h100v-559z" />
<glyph unicode="&#x16d;" d="M91 698q3 -26 21 -47q10 -10 23.5 -16.5t30.5 -6.5t30.5 6.5t23 16.5t15 22.5t6.5 24.5h49q-2 -22 -8.5 -44.5t-20.5 -42.5q-14 -19 -37 -31t-58 -12t-58 12t-37 31t-21 42t-8 45h49zM299 0h-88v42h-2q-14 -23 -36 -35q-22 -13 -51 -13q-18 0 -34 5t-28 16.5t-19 30.5 t-7 47v409h94v-391q0 -20 7 -32.5t29 -12.5q17 0 29 12t12 41v383h94v-502z" />
<glyph unicode="&#x16e;" horiz-adv-x="407" d="M114 878q0 38 26 64t64 26t64 -26t26 -64t-26 -64t-64 -26t-64 26t-26 64zM160 878q0 -18 13 -31t31 -13t31 13t13 31t-13 31t-31 13t-31 -13t-13 -31zM373 163q0 -32 -7.5 -62t-26 -54t-51.5 -38.5t-84 -14.5t-84 14.5t-52 38.5t-26.5 54t-7.5 62v559h100v-576 q0 -37 15.5 -55.5t54.5 -18.5q38 0 53.5 18.5t15.5 55.5v576h100v-559z" />
<glyph unicode="&#x16f;" d="M76 658q0 38 26 64t64 26t64 -26t26 -64t-26 -64t-64 -26t-64 26t-26 64zM122 658q0 -18 13 -31t31 -13t31 13t13 31t-13 31t-31 13t-31 -13t-13 -31zM299 0h-88v42h-2q-14 -23 -36 -35q-22 -13 -51 -13q-18 0 -34 5t-28 16.5t-19 30.5t-7 47v409h94v-391q0 -20 7 -32.5 t29 -12.5q17 0 29 12t12 41v383h94v-502z" />
<glyph unicode="&#x170;" horiz-adv-x="407" d="M163 933h100l-109 -145h-60zM322 933h100l-109 -145h-60zM373 163q0 -32 -7.5 -62t-26 -54t-51.5 -38.5t-84 -14.5t-84 14.5t-52 38.5t-26.5 54t-7.5 62v559h100v-576q0 -37 15.5 -55.5t54.5 -18.5q38 0 53.5 18.5t15.5 55.5v576h100v-559z" />
<glyph unicode="&#x171;" d="M126 713h100l-109 -145h-60zM285 713h100l-109 -145h-60zM299 0h-88v42h-2q-14 -23 -36 -35q-22 -13 -51 -13q-18 0 -34 5t-28 16.5t-19 30.5t-7 47v409h94v-391q0 -20 7 -32.5t29 -12.5q17 0 29 12t12 41v383h94v-502z" />
<glyph unicode="&#x172;" horiz-adv-x="407" d="M250 -205q-11 -6 -28 -11t-37 -5q-51 0 -71 19.5t-20 51.5q0 40 24 82t63 69h46q-34 -42 -47.5 -74t-13.5 -57q0 -20 10.5 -32.5t30.5 -12.5q9 0 17 4t16 9zM373 163q0 -32 -7.5 -62t-26 -54t-51.5 -38.5t-84 -14.5t-84 14.5t-52 38.5t-26.5 54t-7.5 62v559h100v-576 q0 -37 15.5 -55.5t54.5 -18.5q38 0 53.5 18.5t15.5 55.5v576h100v-559z" />
<glyph unicode="&#x173;" d="M191 -205q-11 -6 -28 -11t-37 -5q-51 0 -71 19.5t-20 51.5q0 40 24 82t63 69h46q-34 -42 -47.5 -74t-13.5 -57q0 -20 10.5 -32.5t30.5 -12.5q9 0 17 4t16 9zM299 0h-88v42h-2q-14 -23 -36 -35q-22 -13 -51 -13q-18 0 -34 5t-28 16.5t-19 30.5t-7 47v409h94v-391 q0 -20 7 -32.5t29 -12.5q17 0 29 12t12 41v383h94v-502z" />
<glyph unicode="&#x174;" horiz-adv-x="667" d="M295 933h78l98 -145h-72l-65 85l-65 -85h-72zM13 722h103l72 -594h2l80 594h136l66 -594h2l86 594h94l-130 -722h-122l-67 604h-2l-85 -604h-121z" />
<glyph unicode="&#x175;" horiz-adv-x="537" d="M229 713h78l98 -145h-72l-65 85l-65 -85h-72zM8 502h100l49 -390h2l59 390h107l56 -390h2l52 390h94l-100 -502h-107l-50 390h-2l-68 -390h-103z" />
<glyph unicode="&#x176;" horiz-adv-x="407" d="M165 933h78l98 -145h-72l-65 85l-65 -85h-72zM15 722h100l87 -304h2l100 304h88l-139 -426v-296h-100v296z" />
<glyph unicode="&#x177;" d="M127 713h78l98 -145h-72l-65 85l-65 -85h-72zM6 502h100l62 -363h2l63 363h94l-163 -684h-88l44 189z" />
<glyph unicode="&#x178;" horiz-adv-x="407" d="M15 722h100l87 -304h2l100 304h88l-139 -426v-296h-100v296zM88 897h78v-100h-78v100zM242 897h78v-100h-78v100z" />
<glyph unicode="&#x179;" horiz-adv-x="352" d="M226 933h100l-109 -145h-60zM11 91l225 547h-197v84h297v-84l-225 -554h230v-84h-330v91z" />
<glyph unicode="&#x17a;" horiz-adv-x="241" d="M160 713h100l-109 -145h-60zM11 91l131 339h-131v72h219v-82l-135 -348h135v-72h-219v91z" />
<glyph unicode="&#x17b;" horiz-adv-x="352" d="M149 888h78v-100h-78v100zM11 91l225 547h-197v84h297v-84l-225 -554h230v-84h-330v91z" />
<glyph unicode="&#x17c;" horiz-adv-x="241" d="M81 668h78v-100h-78v100zM11 91l131 339h-131v72h219v-82l-135 -348h135v-72h-219v91z" />
<glyph unicode="&#x17d;" horiz-adv-x="352" d="M11 91l225 547h-197v84h297v-84l-225 -554h230v-84h-330v91zM215 772h-78l-98 145h72l65 -85l65 85h72z" />
<glyph unicode="&#x17e;" horiz-adv-x="241" d="M11 91l131 339h-131v72h219v-82l-135 -348h135v-72h-219v91zM160 597h-78l-98 145h72l65 -85l65 85h72z" />
<glyph unicode="&#x17f;" horiz-adv-x="296" d="M182 340v48q0 29 -7 41.5t-26 12.5t-25.5 -10t-6.5 -36q0 -19 1.5 -31t8.5 -22.5t20 -22.5l37 -33q27 -24 44 -41.5t26.5 -34t13 -36t3.5 -46.5q0 -37 -7 -62.5t-22.5 -41.5t-41.5 -23.5t-63 -7.5q-54 0 -83 24t-29 79v71h88v-69q0 -23 9 -31t26 -8q23 0 29 13t6 43 q0 20 -1.5 33t-7 24t-17 22.5t-31.5 28.5l-21 18q-28 24 -43.5 39.5t-22.5 29.5t-8.5 30t-1.5 42q0 71 33.5 98t96.5 27q107 0 107 -91v-77h-84z" />
<glyph unicode="&#x189;" horiz-adv-x="407" d="M37 328h-37v84h37v310h161q61 0 96 -11.5t52.5 -41.5t22 -81t4.5 -130v-215q0 -69 -7.5 -116t-28.5 -75t-58.5 -40t-96.5 -12h-145v328zM137 84h48q28 0 45 8t26.5 27t13 50t3.5 78v248q0 40 -3 67.5t-13 44t-29 24t-51 7.5h-40v-226h67v-84h-67v-244z" />
<glyph unicode="&#x192;" horiz-adv-x="372" d="M83 488h62l14 127q6 55 25.5 84t62.5 29q24 0 39 -2l33 -4l-6 -61q-6 1 -12 1h-13q-12 0 -19.5 -2t-12 -11t-7.5 -26.5t-6 -48.5l-10 -86h64l-7 -66h-64l-54 -490q-3 -32 -9.5 -54.5t-18 -37t-30.5 -21.5t-48 -7q-16 0 -28 1t-23 3l6 64q4 -2 15 -2q13 0 21 2.5 t13.5 10.5t9 23.5t6.5 42.5l52 465h-62z" />
<glyph unicode="&#x1a0;" horiz-adv-x="407" d="M255 728h106l-56 -178h-72zM134 167q0 -47 19 -71t50 -24q32 0 51 24t19 71v379q0 104 -70 104q-69 0 -69 -104v-379zM34 538q0 38 7.5 72.5t26 60.5t51.5 41.5t84 15.5q48 0 81 -12t52.5 -35.5t28 -56.5t8.5 -75v-365q0 -38 -7.5 -72.5t-26.5 -60.5t-52 -41.5t-84 -15.5 q-48 0 -80.5 12t-52 35.5t-28 56.5t-8.5 75v365z" />
<glyph unicode="&#x1a1;" d="M218 508h106l-56 -178h-72zM33 373q0 64 35 99.5t98 35.5q27 0 51.5 -6.5t42.5 -21t29 -38.5t11 -59v-254q0 -64 -35 -99.5t-98 -35.5q-27 0 -51.5 6.5t-42.5 21t-29 38.5t-11 59v254zM127 123q0 -30 8.5 -46.5t31.5 -16.5q22 0 30.5 16.5t8.5 46.5v256q0 30 -8.5 46.5 t-30.5 16.5q-23 0 -31.5 -16.5t-8.5 -46.5v-256z" />
<glyph unicode="&#x1af;" horiz-adv-x="407" d="M425 728h106l-56 -178h-72zM373 163q0 -32 -7.5 -62t-26 -54t-51.5 -38.5t-84 -14.5t-84 14.5t-52 38.5t-26.5 54t-7.5 62v559h100v-576q0 -37 15.5 -55.5t54.5 -18.5q38 0 53.5 18.5t15.5 55.5v576h100v-559z" />
<glyph unicode="&#x1b0;" d="M351 508h106l-56 -178h-72zM299 0h-88v42h-2q-14 -23 -36 -35q-22 -13 -51 -13q-18 0 -34 5t-28 16.5t-19 30.5t-7 47v409h94v-391q0 -20 7 -32.5t29 -12.5q17 0 29 12t12 41v383h94v-502z" />
<glyph unicode="&#x1c0;" horiz-adv-x="222" d="M69 728h84v-734h-84v734z" />
<glyph unicode="&#x1c1;" horiz-adv-x="444" d="M291 728h84v-734h-84v734zM69 728h84v-734h-84v734z" />
<glyph unicode="&#x1c4;" horiz-adv-x="759" d="M418 91l225 547h-197v84h297v-84l-225 -554h230v-84h-330v91zM622 772h-78l-98 145h72l65 -85l65 85h72zM137 84h48q28 0 45 8t26.5 27t13 50t3.5 78v248q0 40 -3 67.5t-13 44t-29 24t-51 7.5h-40v-554zM37 722h161q61 0 96 -11.5t52.5 -41.5t22 -81t4.5 -130v-215 q0 -69 -7.5 -116t-28.5 -75t-58.5 -40t-96.5 -12h-145v722z" />
<glyph unicode="&#x1c5;" horiz-adv-x="648" d="M418 91l131 339h-131v72h219v-82l-135 -348h135v-72h-219v91zM567 597h-78l-98 145h72l65 -85l65 85h72zM137 84h48q28 0 45 8t26.5 27t13 50t3.5 78v248q0 40 -3 67.5t-13 44t-29 24t-51 7.5h-40v-554zM37 722h161q61 0 96 -11.5t52.5 -41.5t22 -81t4.5 -130v-215 q0 -69 -7.5 -116t-28.5 -75t-58.5 -40t-96.5 -12h-145v722z" />
<glyph unicode="&#x1c6;" horiz-adv-x="574" d="M344 91l131 339h-131v72h219v-82l-135 -348h135v-72h-219v91zM493 597h-78l-98 145h72l65 -85l65 85h72zM127 126q0 -44 11 -58t30 -14q14 0 26 12.5t12 40.5v253q0 47 -11.5 64.5t-31.5 17.5q-16 0 -26 -13.5t-10 -54.5v-248zM33 392q0 56 23 86t65 30q11 0 23.5 -2.5 t23.5 -7.5q24 -11 36 -32h2v256h94v-722h-88v36h-2q-16 -20 -40 -31t-49 -11q-42 0 -65 30t-23 86v282z" />
<glyph unicode="&#x1c7;" horiz-adv-x="630" d="M323 211h94v-71q0 -11 1 -23t5 -22t11.5 -16.5t20.5 -6.5q14 0 22 6t12.5 16t5.5 23t1 27v578h100v-589q0 -66 -33 -102.5t-108 -36.5q-31 0 -55.5 5.5t-41.5 19.5t-26 38t-9 61v93zM37 722h100v-638h168v-84h-268v722z" />
<glyph unicode="&#x1c8;" horiz-adv-x="483" d="M352 502h94v-594q0 -26 -5.5 -44t-21.5 -29.5t-43.5 -17t-72.5 -5.5v72q29 1 39 8.5t10 33.5v576zM352 722h94v-100h-94v100zM37 722h100v-638h168v-84h-268v722z" />
<glyph unicode="&#x1c9;" horiz-adv-x="336" d="M205 502h94v-594q0 -26 -5.5 -44t-21.5 -29.5t-43.5 -17t-72.5 -5.5v72q29 1 39 8.5t10 33.5v576zM205 722h94v-100h-94v100zM37 722h94v-722h-94v722z" />
<glyph unicode="&#x1ca;" horiz-adv-x="741" d="M434 211h94v-71q0 -11 1 -23t5 -22t11.5 -16.5t20.5 -6.5q14 0 22 6t12.5 16t5.5 23t1 27v578h100v-589q0 -66 -33 -102.5t-108 -36.5q-31 0 -55.5 5.5t-41.5 19.5t-26 38t-9 61v93zM37 722h138l118 -600h2v600h94v-722h-144l-118 616h-2v-616h-88v722z" />
<glyph unicode="&#x1cb;" horiz-adv-x="594" d="M463 502h94v-594q0 -26 -5.5 -44t-21.5 -29.5t-43.5 -17t-72.5 -5.5v72q29 1 39 8.5t10 33.5v576zM463 722h94v-100h-94v100zM37 722h138l118 -600h2v600h94v-722h-144l-118 616h-2v-616h-88v722z" />
<glyph unicode="&#x1cc;" horiz-adv-x="501" d="M370 502h94v-594q0 -26 -5.5 -44t-21.5 -29.5t-43.5 -17t-72.5 -5.5v72q29 1 39 8.5t10 33.5v576zM370 722h94v-100h-94v100zM34 502h88v-42h2q14 23 36 35q22 13 51 13q18 0 34 -5t28 -16.5t19 -30.5t7 -47v-409h-94v391q0 20 -7 32.5t-29 12.5q-17 0 -29 -12t-12 -41 v-383h-94v502z" />
<glyph unicode="&#x1cd;" horiz-adv-x="444" d="M267 788h-78l-98 145h72l65 -85l65 85h72zM170 722h116l147 -722h-100l-33 184h-156l-33 -184h-100zM159 268h127l-62 348h-2z" />
<glyph unicode="&#x1ce;" d="M205 568h-78l-98 145h72l65 -85l65 85h72zM32 399q0 109 134 109q65 0 99 -28t34 -94v-386h-88v52q-8 -8 -13.5 -15.5t-13.5 -15.5q-13 -13 -31 -20t-36 -7q-21 0 -38 4.5t-29 19t-18.5 41.5t-6.5 72q0 38 1.5 62.5t5.5 41t10.5 27t16.5 20.5q8 9 17 14.5t24 9.5 t39.5 5.5t65.5 1.5v81q0 22 -7.5 35t-31.5 13q-20 0 -30 -9.5t-10 -32.5v-46h-94v45zM175 247q-33 0 -44.5 -22t-11.5 -81q0 -28 1.5 -44.5t5.5 -25.5t11.5 -11.5t18.5 -2.5q24 0 36.5 16t12.5 42v129h-30z" />
<glyph unicode="&#x1cf;" horiz-adv-x="168" d="M123 788h-78l-98 145h72l65 -85l65 85h72zM34 722h100v-722h-100v722z" />
<glyph unicode="&#x1d0;" horiz-adv-x="168" d="M123 568h-78l-98 145h72l65 -85l65 85h72zM37 502h94v-502h-94v502z" />
<glyph unicode="&#x1d1;" horiz-adv-x="407" d="M242 788h-78l-98 145h72l65 -85l65 85h72zM134 167q0 -47 19 -71t50 -24q32 0 51 24t19 71v379q0 104 -70 104q-69 0 -69 -104v-379zM34 538q0 38 7.5 72.5t26 60.5t51.5 41.5t84 15.5q48 0 81 -12t52.5 -35.5t28 -56.5t8.5 -75v-365q0 -38 -7.5 -72.5t-26.5 -60.5 t-52 -41.5t-84 -15.5q-48 0 -80.5 12t-52 35.5t-28 56.5t-8.5 75v365z" />
<glyph unicode="&#x1d2;" d="M205 568h-78l-98 145h72l65 -85l65 85h72zM33 373q0 64 35 99.5t98 35.5q27 0 51.5 -6.5t42.5 -21t29 -38.5t11 -59v-254q0 -64 -35 -99.5t-98 -35.5q-27 0 -51.5 6.5t-42.5 21t-29 38.5t-11 59v254zM127 123q0 -30 8.5 -46.5t31.5 -16.5q22 0 30.5 16.5t8.5 46.5v256 q0 30 -8.5 46.5t-30.5 16.5q-23 0 -31.5 -16.5t-8.5 -46.5v-256z" />
<glyph unicode="&#x1d3;" horiz-adv-x="407" d="M243 788h-78l-98 145h72l65 -85l65 85h72zM373 163q0 -32 -7.5 -62t-26 -54t-51.5 -38.5t-84 -14.5t-84 14.5t-52 38.5t-26.5 54t-7.5 62v559h100v-576q0 -37 15.5 -55.5t54.5 -18.5q38 0 53.5 18.5t15.5 55.5v576h100v-559z" />
<glyph unicode="&#x1d4;" d="M205 568h-78l-98 145h72l65 -85l65 85h72zM299 0h-88v42h-2q-14 -23 -36 -35q-22 -13 -51 -13q-18 0 -34 5t-28 16.5t-19 30.5t-7 47v409h94v-391q0 -20 7 -32.5t29 -12.5q17 0 29 12t12 41v383h94v-502z" />
<glyph unicode="&#x1d5;" horiz-adv-x="407" d="M72 1011h264v-54h-264v54zM373 163q0 -32 -7.5 -62t-26 -54t-51.5 -38.5t-84 -14.5t-84 14.5t-52 38.5t-26.5 54t-7.5 62v559h100v-576q0 -37 15.5 -55.5t54.5 -18.5q38 0 53.5 18.5t15.5 55.5v576h100v-559zM88 897h78v-100h-78v100zM242 897h78v-100h-78v100z" />
<glyph unicode="&#x1d6;" d="M35 836h264v-54h-264v54zM299 0h-88v42h-2q-14 -23 -36 -35q-22 -13 -51 -13q-18 0 -34 5t-28 16.5t-19 30.5t-7 47v409h94v-391q0 -20 7 -32.5t29 -12.5q17 0 29 12t12 41v383h94v-502zM51 722h78v-100h-78v100zM205 722h78v-100h-78v100z" />
<glyph unicode="&#x1d7;" horiz-adv-x="407" d="M243 1102h100l-109 -145h-60zM373 163q0 -32 -7.5 -62t-26 -54t-51.5 -38.5t-84 -14.5t-84 14.5t-52 38.5t-26.5 54t-7.5 62v559h100v-576q0 -37 15.5 -55.5t54.5 -18.5q38 0 53.5 18.5t15.5 55.5v576h100v-559zM88 897h78v-100h-78v100zM242 897h78v-100h-78v100z" />
<glyph unicode="&#x1d8;" d="M206 927h100l-109 -145h-60zM299 0h-88v42h-2q-14 -23 -36 -35q-22 -13 -51 -13q-18 0 -34 5t-28 16.5t-19 30.5t-7 47v409h94v-391q0 -20 7 -32.5t29 -12.5q17 0 29 12t12 41v383h94v-502zM51 722h78v-100h-78v100zM205 722h78v-100h-78v100z" />
<glyph unicode="&#x1d9;" horiz-adv-x="407" d="M243 957h-78l-98 145h72l65 -85l65 85h72zM373 163q0 -32 -7.5 -62t-26 -54t-51.5 -38.5t-84 -14.5t-84 14.5t-52 38.5t-26.5 54t-7.5 62v559h100v-576q0 -37 15.5 -55.5t54.5 -18.5q38 0 53.5 18.5t15.5 55.5v576h100v-559zM88 897h78v-100h-78v100zM242 897h78v-100 h-78v100z" />
<glyph unicode="&#x1da;" d="M206 782h-78l-98 145h72l65 -85l65 85h72zM299 0h-88v42h-2q-14 -23 -36 -35q-22 -13 -51 -13q-18 0 -34 5t-28 16.5t-19 30.5t-7 47v409h94v-391q0 -20 7 -32.5t29 -12.5q17 0 29 12t12 41v383h94v-502zM51 722h78v-100h-78v100zM205 722h78v-100h-78v100z" />
<glyph unicode="&#x1db;" horiz-adv-x="407" d="M65 1102h100l69 -145h-60zM373 163q0 -32 -7.5 -62t-26 -54t-51.5 -38.5t-84 -14.5t-84 14.5t-52 38.5t-26.5 54t-7.5 62v559h100v-576q0 -37 15.5 -55.5t54.5 -18.5q38 0 53.5 18.5t15.5 55.5v576h100v-559zM88 897h78v-100h-78v100zM242 897h78v-100h-78v100z" />
<glyph unicode="&#x1dc;" d="M28 927h100l69 -145h-60zM299 0h-88v42h-2q-14 -23 -36 -35q-22 -13 -51 -13q-18 0 -34 5t-28 16.5t-19 30.5t-7 47v409h94v-391q0 -20 7 -32.5t29 -12.5q17 0 29 12t12 41v383h94v-502zM51 722h78v-100h-78v100zM205 722h78v-100h-78v100z" />
<glyph unicode="&#x1de;" horiz-adv-x="444" d="M95 1011h264v-54h-264v54zM170 722h116l147 -722h-100l-33 184h-156l-33 -184h-100zM159 268h127l-62 348h-2zM111 897h78v-100h-78v100zM265 897h78v-100h-78v100z" />
<glyph unicode="&#x1df;" d="M35 836h264v-54h-264v54zM32 399q0 109 134 109q65 0 99 -28t34 -94v-386h-88v52q-8 -8 -13.5 -15.5t-13.5 -15.5q-13 -13 -31 -20t-36 -7q-21 0 -38 4.5t-29 19t-18.5 41.5t-6.5 72q0 38 1.5 62.5t5.5 41t10.5 27t16.5 20.5q8 9 17 14.5t24 9.5t39.5 5.5t65.5 1.5v81 q0 22 -7.5 35t-31.5 13q-20 0 -30 -9.5t-10 -32.5v-46h-94v45zM175 247q-33 0 -44.5 -22t-11.5 -81q0 -28 1.5 -44.5t5.5 -25.5t11.5 -11.5t18.5 -2.5q24 0 36.5 16t12.5 42v129h-30zM51 722h78v-100h-78v100zM205 722h78v-100h-78v100z" />
<glyph unicode="&#x1e2;" horiz-adv-x="611" d="M288 842h264v-54h-264v54zM288 628h-2l-100 -360h130zM235 722h370v-84h-230l20 -226h200v-84h-193l21 -244h182v-84h-269l-14 184h-160l-51 -184h-100z" />
<glyph unicode="&#x1e3;" horiz-adv-x="481" d="M111 622h264v-54h-264v54zM196 234h-20q-33 0 -44 -14t-11 -49v-59q0 -35 7.5 -46.5t24.5 -11.5q23 0 33 11.5t10 49.5v119zM290 300h76v72q0 41 -8.5 55.5t-31.5 14.5t-29.5 -14.5t-6.5 -46.5v-81zM33 393q0 54 30 84.5t84 30.5q42 0 67 -14.5t31 -31.5q13 22 35.5 34 t58.5 12q58 0 86.5 -33t28.5 -96v-145h-164v-122q0 -35 12 -46.5t26 -11.5q15 0 26.5 12.5t11.5 50.5v37h88v-31q0 -71 -34 -100t-87 -29q-33 0 -56 9t-37 35q-14 -23 -33.5 -33.5t-59.5 -10.5q-36 0 -59.5 9t-37 27t-18.5 44.5t-5 60.5t1.5 56t5 36t10 23.5t15.5 18.5 q21 19 50.5 25t86.5 6v93q0 29 -8 39t-25 10q-36 0 -36 -54v-34h-94v39z" />
<glyph unicode="&#x1e6;" horiz-adv-x="407" d="M246 788h-78l-98 145h72l65 -85l65 85h72zM270 531v37q0 38 -17.5 60t-46.5 22q-35 0 -52 -30.5t-17 -88.5v-364q0 -44 19 -69.5t50 -25.5q21 0 37.5 2.5t26.5 4.5v212h-66v84h166v-363q-15 -3 -34.5 -6.5t-41.5 -6t-45 -4t-44 -1.5q-48 0 -80 12t-51.5 35.5t-28 56.5 t-8.5 75v365q0 51 8.5 87t28 59t52.5 33.5t81 10.5q81 0 122 -31t41 -100v-66h-100z" />
<glyph unicode="&#x1e7;" d="M160 568h-78l-98 145h72l65 -85l65 85h72zM42 -46h94v-39q0 -22 7.5 -32.5t27.5 -10.5q18 0 26.5 12.5t8.5 44.5v125h-2q-14 -23 -34.5 -32.5t-48.5 -9.5q-42 0 -65 30t-23 86v264q0 56 23 86t65 30q32 0 51 -11.5t38 -39.5h2v45h88v-551q0 -67 -33 -103t-102 -36 q-26 0 -48 5t-39 17t-26.5 31t-9.5 47v42zM127 150q0 -44 11 -58t30 -14q14 0 26 12.5t12 40.5v258q0 53 -42 53q-17 0 -27 -10t-10 -42v-240z" />
<glyph unicode="&#x1e8;" horiz-adv-x="407" d="M256 788h-78l-98 145h72l65 -85l65 85h72zM37 722h100v-329h2l158 329h100l-168 -339l180 -383h-112l-158 361h-2v-361h-100v722z" />
<glyph unicode="&#x1e9;" horiz-adv-x="315" d="M120 782h-78l-98 145h72l65 -85l65 85h72zM34 722h94v-433h2l85 213h88l-91 -225l103 -277h-100l-85 258h-2v-258h-94v722z" />
<glyph unicode="&#x1ea;" horiz-adv-x="407" d="M249 -205q-11 -6 -28 -11t-37 -5q-51 0 -71 19.5t-20 51.5q0 40 24 82t63 69h46q-34 -42 -47.5 -74t-13.5 -57q0 -20 10.5 -32.5t30.5 -12.5q9 0 17 4t16 9zM134 167q0 -47 19 -71t50 -24q32 0 51 24t19 71v379q0 104 -70 104q-69 0 -69 -104v-379zM34 538q0 38 7.5 72.5 t26 60.5t51.5 41.5t84 15.5q48 0 81 -12t52.5 -35.5t28 -56.5t8.5 -75v-365q0 -38 -7.5 -72.5t-26.5 -60.5t-52 -41.5t-84 -15.5q-48 0 -80.5 12t-52 35.5t-28 56.5t-8.5 75v365z" />
<glyph unicode="&#x1eb;" d="M213 -205q-11 -6 -28 -11t-37 -5q-51 0 -71 19.5t-20 51.5q0 40 24 82t63 69h46q-34 -42 -47.5 -74t-13.5 -57q0 -20 10.5 -32.5t30.5 -12.5q9 0 17 4t16 9zM33 373q0 64 35 99.5t98 35.5q27 0 51.5 -6.5t42.5 -21t29 -38.5t11 -59v-254q0 -64 -35 -99.5t-98 -35.5 q-27 0 -51.5 6.5t-42.5 21t-29 38.5t-11 59v254zM127 123q0 -30 8.5 -46.5t31.5 -16.5q22 0 30.5 16.5t8.5 46.5v256q0 30 -8.5 46.5t-30.5 16.5q-23 0 -31.5 -16.5t-8.5 -46.5v-256z" />
<glyph unicode="&#x1ec;" horiz-adv-x="407" d="M71 842h264v-54h-264v54zM249 -205q-11 -6 -28 -11t-37 -5q-51 0 -71 19.5t-20 51.5q0 40 24 82t63 69h46q-34 -42 -47.5 -74t-13.5 -57q0 -20 10.5 -32.5t30.5 -12.5q9 0 17 4t16 9zM134 167q0 -47 19 -71t50 -24q32 0 51 24t19 71v379q0 104 -70 104q-69 0 -69 -104 v-379zM34 538q0 38 7.5 72.5t26 60.5t51.5 41.5t84 15.5q48 0 81 -12t52.5 -35.5t28 -56.5t8.5 -75v-365q0 -38 -7.5 -72.5t-26.5 -60.5t-52 -41.5t-84 -15.5q-48 0 -80.5 12t-52 35.5t-28 56.5t-8.5 75v365z" />
<glyph unicode="&#x1ed;" d="M34 622h264v-54h-264v54zM213 -205q-11 -6 -28 -11t-37 -5q-51 0 -71 19.5t-20 51.5q0 40 24 82t63 69h46q-34 -42 -47.5 -74t-13.5 -57q0 -20 10.5 -32.5t30.5 -12.5q9 0 17 4t16 9zM33 373q0 64 35 99.5t98 35.5q27 0 51.5 -6.5t42.5 -21t29 -38.5t11 -59v-254 q0 -64 -35 -99.5t-98 -35.5q-27 0 -51.5 6.5t-42.5 21t-29 38.5t-11 59v254zM127 123q0 -30 8.5 -46.5t31.5 -16.5q22 0 30.5 16.5t8.5 46.5v256q0 30 -8.5 46.5t-30.5 16.5q-23 0 -31.5 -16.5t-8.5 -46.5v-256z" />
<glyph unicode="&#x1f0;" horiz-adv-x="168" d="M123 782h-78l-98 145h72l65 -85l65 85h72zM37 502h94v-594q0 -26 -5.5 -44t-21.5 -29.5t-43.5 -17t-72.5 -5.5v72q29 1 39 8.5t10 33.5v576zM37 722h94v-100h-94v100z" />
<glyph unicode="&#x1f1;" horiz-adv-x="759" d="M418 91l225 547h-197v84h297v-84l-225 -554h230v-84h-330v91zM137 84h48q28 0 45 8t26.5 27t13 50t3.5 78v248q0 40 -3 67.5t-13 44t-29 24t-51 7.5h-40v-554zM37 722h161q61 0 96 -11.5t52.5 -41.5t22 -81t4.5 -130v-215q0 -69 -7.5 -116t-28.5 -75t-58.5 -40t-96.5 -12 h-145v722z" />
<glyph unicode="&#x1f2;" horiz-adv-x="648" d="M418 91l131 339h-131v72h219v-82l-135 -348h135v-72h-219v91zM137 84h48q28 0 45 8t26.5 27t13 50t3.5 78v248q0 40 -3 67.5t-13 44t-29 24t-51 7.5h-40v-554zM37 722h161q61 0 96 -11.5t52.5 -41.5t22 -81t4.5 -130v-215q0 -69 -7.5 -116t-28.5 -75t-58.5 -40t-96.5 -12 h-145v722z" />
<glyph unicode="&#x1f3;" horiz-adv-x="574" d="M344 91l131 339h-131v72h219v-82l-135 -348h135v-72h-219v91zM127 126q0 -44 11 -58t30 -14q14 0 26 12.5t12 40.5v253q0 47 -11.5 64.5t-31.5 17.5q-16 0 -26 -13.5t-10 -54.5v-248zM33 392q0 56 23 86t65 30q11 0 23.5 -2.5t23.5 -7.5q24 -11 36 -32h2v256h94v-722h-88 v36h-2q-16 -20 -40 -31t-49 -11q-42 0 -65 30t-23 86v282z" />
<glyph unicode="&#x1f4;" horiz-adv-x="407" d="M246 933h100l-109 -145h-60zM270 531v37q0 38 -17.5 60t-46.5 22q-35 0 -52 -30.5t-17 -88.5v-364q0 -44 19 -69.5t50 -25.5q21 0 37.5 2.5t26.5 4.5v212h-66v84h166v-363q-15 -3 -34.5 -6.5t-41.5 -6t-45 -4t-44 -1.5q-48 0 -80 12t-51.5 35.5t-28 56.5t-8.5 75v365 q0 51 8.5 87t28 59t52.5 33.5t81 10.5q81 0 122 -31t41 -100v-66h-100z" />
<glyph unicode="&#x1f5;" d="M160 713h100l-109 -145h-60zM42 -46h94v-39q0 -22 7.5 -32.5t27.5 -10.5q18 0 26.5 12.5t8.5 44.5v125h-2q-14 -23 -34.5 -32.5t-48.5 -9.5q-42 0 -65 30t-23 86v264q0 56 23 86t65 30q32 0 51 -11.5t38 -39.5h2v45h88v-551q0 -67 -33 -103t-102 -36q-26 0 -48 5t-39 17 t-26.5 31t-9.5 47v42zM127 150q0 -44 11 -58t30 -14q14 0 26 12.5t12 40.5v258q0 53 -42 53q-17 0 -27 -10t-10 -42v-240z" />
<glyph unicode="&#x1f8;" horiz-adv-x="426" d="M74 933h100l69 -145h-60zM37 722h138l118 -600h2v600h94v-722h-144l-118 616h-2v-616h-88v722z" />
<glyph unicode="&#x1f9;" d="M28 713h100l69 -145h-60zM34 502h88v-42h2q14 23 36 35q22 13 51 13q18 0 34 -5t28 -16.5t19 -30.5t7 -47v-409h-94v391q0 20 -7 32.5t-29 12.5q-17 0 -29 -12t-12 -41v-383h-94v502z" />
<glyph unicode="&#x1fa;" horiz-adv-x="444" d="M266 1129h100l-109 -145h-60zM170 722h116l147 -722h-100l-33 184h-156l-33 -184h-100zM159 268h127l-62 348h-2zM137 834q0 38 26 64t64 26t64 -26t26 -64t-26 -64t-64 -26t-64 26t-26 64zM183 834q0 -18 13 -31t31 -13t31 13t13 31t-13 31t-31 13t-31 -13t-13 -31z" />
<glyph unicode="&#x1fb;" d="M206 954h100l-109 -145h-60zM32 399q0 109 134 109q65 0 99 -28t34 -94v-386h-88v52q-8 -8 -13.5 -15.5t-13.5 -15.5q-13 -13 -31 -20t-36 -7q-21 0 -38 4.5t-29 19t-18.5 41.5t-6.5 72q0 38 1.5 62.5t5.5 41t10.5 27t16.5 20.5q8 9 17 14.5t24 9.5t39.5 5.5t65.5 1.5v81 q0 22 -7.5 35t-31.5 13q-20 0 -30 -9.5t-10 -32.5v-46h-94v45zM175 247q-33 0 -44.5 -22t-11.5 -81q0 -28 1.5 -44.5t5.5 -25.5t11.5 -11.5t18.5 -2.5q24 0 36.5 16t12.5 42v129h-30zM77 659q0 38 26 64t64 26t64 -26t26 -64t-26 -64t-64 -26t-64 26t-26 64zM123 659 q0 -18 13 -31t31 -13t31 13t13 31t-13 31t-31 13t-31 -13t-13 -31z" />
<glyph unicode="&#x1fc;" horiz-adv-x="611" d="M459 933h100l-109 -145h-60zM288 628h-2l-100 -360h130zM235 722h370v-84h-230l20 -226h200v-84h-193l21 -244h182v-84h-269l-14 184h-160l-51 -184h-100z" />
<glyph unicode="&#x1fd;" horiz-adv-x="481" d="M282 713h100l-109 -145h-60zM196 234h-20q-33 0 -44 -14t-11 -49v-59q0 -35 7.5 -46.5t24.5 -11.5q23 0 33 11.5t10 49.5v119zM290 300h76v72q0 41 -8.5 55.5t-31.5 14.5t-29.5 -14.5t-6.5 -46.5v-81zM33 393q0 54 30 84.5t84 30.5q42 0 67 -14.5t31 -31.5q13 22 35.5 34 t58.5 12q58 0 86.5 -33t28.5 -96v-145h-164v-122q0 -35 12 -46.5t26 -11.5q15 0 26.5 12.5t11.5 50.5v37h88v-31q0 -71 -34 -100t-87 -29q-33 0 -56 9t-37 35q-14 -23 -33.5 -33.5t-59.5 -10.5q-36 0 -59.5 9t-37 27t-18.5 44.5t-5 60.5t1.5 56t5 36t10 23.5t15.5 18.5 q21 19 50.5 25t86.5 6v93q0 29 -8 39t-25 10q-36 0 -36 -54v-34h-94v39z" />
<glyph unicode="&#x1fe;" horiz-adv-x="407" d="M242 973h100l-109 -145h-60zM134 240h2l131 357q-3 20 -19 36.5t-45 16.5q-69 0 -69 -104v-306zM63 51q-16 23 -22.5 53.5t-6.5 68.5v365q0 38 7.5 72.5t26 60.5t51.5 41.5t84 15.5q65 0 104 -24l24 64l37 -18l-28 -75q18 -22 25.5 -53.5t7.5 -72.5v-365 q0 -38 -7.5 -72.5t-26.5 -60.5t-52 -41.5t-84 -15.5q-71 0 -108 27l-20 -55l-37 18zM273 496h-2l-134 -361q5 -26 21 -44.5t45 -18.5q32 0 51 24t19 71v329z" />
<glyph unicode="&#x1ff;" d="M206 759h100l-109 -145h-60zM127 208h2l77 186q-1 20 -9 34t-30 14q-23 0 -31.5 -16.5t-8.5 -46.5v-171zM206 307h-2l-77 -188q1 -29 9.5 -44t30.5 -15t30.5 16.5t8.5 46.5v184zM57 40q-24 27 -24 79v254q0 64 35 99.5t98 35.5q22 0 42 -4t37 -14l27 64l31 -16l-30 -71 q13 -14 20 -34.5t7 -49.5v-254q0 -64 -35 -99.5t-98 -35.5q-49 0 -83 21l-23 -55l-31 16z" />
<glyph unicode="&#x202;" horiz-adv-x="444" d="M153 788q3 26 21 47q10 10 23.5 16.5t30.5 6.5t30.5 -6.5t23 -16.5t15 -22.5t6.5 -24.5h49q-2 22 -8.5 44.5t-20.5 42.5q-14 19 -37 31t-58 12t-58 -12t-37 -31t-21 -42t-8 -45h49zM170 722h116l147 -722h-100l-33 184h-156l-33 -184h-100zM159 268h127l-62 348h-2z" />
<glyph unicode="&#x203;" d="M91 568q3 26 21 47q10 10 23.5 16.5t30.5 6.5t30.5 -6.5t23 -16.5t15 -22.5t6.5 -24.5h49q-2 22 -8.5 44.5t-20.5 42.5q-14 19 -37 31t-58 12t-58 -12t-37 -31t-21 -42t-8 -45h49zM32 399q0 109 134 109q65 0 99 -28t34 -94v-386h-88v52q-8 -8 -13.5 -15.5t-13.5 -15.5 q-13 -13 -31 -20t-36 -7q-21 0 -38 4.5t-29 19t-18.5 41.5t-6.5 72q0 38 1.5 62.5t5.5 41t10.5 27t16.5 20.5q8 9 17 14.5t24 9.5t39.5 5.5t65.5 1.5v81q0 22 -7.5 35t-31.5 13q-20 0 -30 -9.5t-10 -32.5v-46h-94v45zM175 247q-33 0 -44.5 -22t-11.5 -81q0 -28 1.5 -44.5 t5.5 -25.5t11.5 -11.5t18.5 -2.5q24 0 36.5 16t12.5 42v129h-30z" />
<glyph unicode="&#x206;" horiz-adv-x="315" d="M98 788q3 26 21 47q10 10 23.5 16.5t30.5 6.5t30.5 -6.5t23 -16.5t15 -22.5t6.5 -24.5h49q-2 22 -8.5 44.5t-20.5 42.5q-14 19 -37 31t-58 12t-58 -12t-37 -31t-21 -42t-8 -45h49zM37 722h272v-84h-172v-226h162v-84h-162v-244h172v-84h-272v722z" />
<glyph unicode="&#x207;" d="M91 568q3 26 21 47q10 10 23.5 16.5t30.5 6.5t30.5 -6.5t23 -16.5t15 -22.5t6.5 -24.5h49q-2 22 -8.5 44.5t-20.5 42.5q-14 19 -37 31t-58 12t-58 -12t-37 -31t-21 -42t-8 -45h49zM30 373q0 64 35 99.5t101 35.5q28 0 53 -6.5t43.5 -21t29.5 -38.5t11 -59v-162h-179v-107 q0 -35 11.5 -47.5t34.5 -12.5q26 0 35.5 17.5t9.5 47.5v46h88v-71q0 -19 -7.5 -37t-24 -32t-43 -22.5t-65.5 -8.5q-27 0 -51 6.5t-42 21t-29 38.5t-11 59v254zM124 287h91v98q0 34 -10.5 48.5t-34.5 14.5q-26 0 -36 -14t-10 -41v-106z" />
<glyph unicode="&#x20a;" horiz-adv-x="168" d="M9 788q3 26 21 47q10 10 23.5 16.5t30.5 6.5t30.5 -6.5t23 -16.5t15 -22.5t6.5 -24.5h49q-2 22 -8.5 44.5t-20.5 42.5q-14 19 -37 31t-58 12t-58 -12t-37 -31t-21 -42t-8 -45h49zM34 722h100v-722h-100v722z" />
<glyph unicode="&#x20b;" horiz-adv-x="168" d="M9 568q3 26 21 47q10 10 23.5 16.5t30.5 6.5t30.5 -6.5t23 -16.5t15 -22.5t6.5 -24.5h49q-2 22 -8.5 44.5t-20.5 42.5q-14 19 -37 31t-58 12t-58 -12t-37 -31t-21 -42t-8 -45h49zM37 502h94v-502h-94v502z" />
<glyph unicode="&#x20e;" horiz-adv-x="407" d="M128 788q3 26 21 47q10 10 23.5 16.5t30.5 6.5t30.5 -6.5t23 -16.5t15 -22.5t6.5 -24.5h49q-2 22 -8.5 44.5t-20.5 42.5q-14 19 -37 31t-58 12t-58 -12t-37 -31t-21 -42t-8 -45h49zM134 167q0 -47 19 -71t50 -24q32 0 51 24t19 71v379q0 104 -70 104q-69 0 -69 -104v-379 zM34 538q0 38 7.5 72.5t26 60.5t51.5 41.5t84 15.5q48 0 81 -12t52.5 -35.5t28 -56.5t8.5 -75v-365q0 -38 -7.5 -72.5t-26.5 -60.5t-52 -41.5t-84 -15.5q-48 0 -80.5 12t-52 35.5t-28 56.5t-8.5 75v365z" />
<glyph unicode="&#x20f;" d="M91 568q3 26 21 47q10 10 23.5 16.5t30.5 6.5t30.5 -6.5t23 -16.5t15 -22.5t6.5 -24.5h49q-2 22 -8.5 44.5t-20.5 42.5q-14 19 -37 31t-58 12t-58 -12t-37 -31t-21 -42t-8 -45h49zM33 373q0 64 35 99.5t98 35.5q27 0 51.5 -6.5t42.5 -21t29 -38.5t11 -59v-254 q0 -64 -35 -99.5t-98 -35.5q-27 0 -51.5 6.5t-42.5 21t-29 38.5t-11 59v254zM127 123q0 -30 8.5 -46.5t31.5 -16.5q22 0 30.5 16.5t8.5 46.5v256q0 30 -8.5 46.5t-30.5 16.5q-23 0 -31.5 -16.5t-8.5 -46.5v-256z" />
<glyph unicode="&#x212;" horiz-adv-x="389" d="M39 788q3 26 21 47q10 10 23.5 16.5t30.5 6.5t30.5 -6.5t23 -16.5t15 -22.5t6.5 -24.5h49q-2 22 -8.5 44.5t-20.5 42.5q-14 19 -37 31t-58 12t-58 -12t-37 -31t-21 -42t-8 -45h49zM37 722h155q55 0 87 -8.5t48.5 -30.5t21 -60.5t4.5 -97.5q0 -36 -3.5 -63t-13.5 -46 t-28.5 -32.5t-49.5 -22.5v-2q51 -5 71 -32t20 -78v-157q0 -20 0.5 -44.5t5.5 -47.5h-94q-8 14 -10 28.5t-2 36.5v163q0 25 -3 42t-11.5 26.5t-23.5 13.5t-40 4h-34v-314h-100v722zM137 398h26q30 0 47.5 4t27 17t12.5 37t3 65q0 40 -2 63.5t-9 35.5t-20.5 15t-36.5 3h-48 v-240z" />
<glyph unicode="&#x213;" horiz-adv-x="204" d="M46 568q3 26 21 47q10 10 23.5 16.5t30.5 6.5t30.5 -6.5t23 -16.5t15 -22.5t6.5 -24.5h49q-2 22 -8.5 44.5t-20.5 42.5q-14 19 -37 31t-58 12t-58 -12t-37 -31t-21 -42t-8 -45h49zM34 502h88v-52h2q8 18 16 29t17 17.5t21.5 9t29.5 2.5v-94q-35 0 -57.5 -13t-22.5 -52 v-349h-94v502z" />
<glyph unicode="&#x216;" horiz-adv-x="407" d="M129 788q3 26 21 47q10 10 23.5 16.5t30.5 6.5t30.5 -6.5t23 -16.5t15 -22.5t6.5 -24.5h49q-2 22 -8.5 44.5t-20.5 42.5q-14 19 -37 31t-58 12t-58 -12t-37 -31t-21 -42t-8 -45h49zM373 163q0 -32 -7.5 -62t-26 -54t-51.5 -38.5t-84 -14.5t-84 14.5t-52 38.5t-26.5 54 t-7.5 62v559h100v-576q0 -37 15.5 -55.5t54.5 -18.5q38 0 53.5 18.5t15.5 55.5v576h100v-559z" />
<glyph unicode="&#x217;" d="M91 568q3 26 21 47q10 10 23.5 16.5t30.5 6.5t30.5 -6.5t23 -16.5t15 -22.5t6.5 -24.5h49q-2 22 -8.5 44.5t-20.5 42.5q-14 19 -37 31t-58 12t-58 -12t-37 -31t-21 -42t-8 -45h49zM299 0h-88v42h-2q-14 -23 -36 -35q-22 -13 -51 -13q-18 0 -34 5t-28 16.5t-19 30.5t-7 47 v409h94v-391q0 -20 7 -32.5t29 -12.5q17 0 29 12t12 41v383h94v-502z" />
<glyph unicode="&#x218;" horiz-adv-x="370" d="M139 -66h106l-56 -178h-72zM26 209h100v-59q0 -36 14 -57t44 -21q40 0 53 24t13 59q0 23 -2 40t-12.5 36t-32 44t-60.5 64l-45 47q-22 24 -37.5 50t-25 56t-9.5 67q0 89 41 129t123 40q41 0 70 -11.5t47 -28.5q13 -12 21 -33t8 -59v-68h-94v57q0 31 -13.5 48t-42.5 17 q-31 0 -45.5 -18.5t-14.5 -60.5q0 -18 3 -34.5t13.5 -35.5t30.5 -44t55 -61q37 -38 59.5 -65.5t35 -52t17 -49t4.5 -57.5q0 -85 -37 -131.5t-126 -46.5q-69 0 -112 30.5t-43 98.5v86z" />
<glyph unicode="&#x219;" horiz-adv-x="296" d="M95 -66h106l-56 -178h-72zM182 340v48q0 29 -7 41.5t-26 12.5t-25.5 -10t-6.5 -36q0 -19 1.5 -31t8.5 -22.5t20 -22.5l37 -33q27 -24 44 -41.5t26.5 -34t13 -36t3.5 -46.5q0 -37 -7 -62.5t-22.5 -41.5t-41.5 -23.5t-63 -7.5q-54 0 -83 24t-29 79v71h88v-69q0 -23 9 -31 t26 -8q23 0 29 13t6 43q0 20 -1.5 33t-7 24t-17 22.5t-31.5 28.5l-21 18q-28 24 -43.5 39.5t-22.5 29.5t-8.5 30t-1.5 42q0 71 33.5 98t96.5 27q107 0 107 -91v-77h-84z" />
<glyph unicode="&#x21a;" horiz-adv-x="352" d="M134 -60h106l-56 -178h-72zM6 722h340v-84h-120v-638h-100v638h-120v84z" />
<glyph unicode="&#x21b;" horiz-adv-x="204" d="M112 -60h106l-56 -178h-72zM52 436h-47v66h47v95l94 33v-128h58v-66h-58v-325q0 -29 12 -37t33 -8q15 0 24 3v-66q-8 -1 -24.5 -2t-36.5 -1q-57 0 -79.5 16.5t-22.5 50.5v369z" />
<glyph unicode="&#x21e;" horiz-adv-x="407" d="M243 788h-78l-98 145h72l65 -85l65 85h72zM37 722h100v-310h133v310h100v-722h-100v328h-133v-328h-100v722z" />
<glyph unicode="&#x21f;" d="M205 782h-78l-98 145h72l65 -85l65 85h72zM34 722h94v-262h2q10 23 33 36q22 12 48 12q18 0 34 -5t28 -16.5t19 -30.5t7 -47v-409h-94v391q0 20 -7 32.5t-29 12.5q-17 0 -29 -12t-12 -41v-383h-94v722z" />
<glyph unicode="&#x226;" horiz-adv-x="444" d="M189 888h78v-100h-78v100zM170 722h116l147 -722h-100l-33 184h-156l-33 -184h-100zM159 268h127l-62 348h-2z" />
<glyph unicode="&#x227;" d="M127 668h78v-100h-78v100zM32 399q0 109 134 109q65 0 99 -28t34 -94v-386h-88v52q-8 -8 -13.5 -15.5t-13.5 -15.5q-13 -13 -31 -20t-36 -7q-21 0 -38 4.5t-29 19t-18.5 41.5t-6.5 72q0 38 1.5 62.5t5.5 41t10.5 27t16.5 20.5q8 9 17 14.5t24 9.5t39.5 5.5t65.5 1.5v81 q0 22 -7.5 35t-31.5 13q-20 0 -30 -9.5t-10 -32.5v-46h-94v45zM175 247q-33 0 -44.5 -22t-11.5 -81q0 -28 1.5 -44.5t5.5 -25.5t11.5 -11.5t18.5 -2.5q24 0 36.5 16t12.5 42v129h-30z" />
<glyph unicode="&#x228;" horiz-adv-x="315" d="M118 -136q10 -5 20.5 -8.5t27.5 -3.5q26 0 35.5 12t9.5 23q0 17 -13.5 24.5t-24.5 7.5q-24 0 -44 -10l25 97h39l-13 -51l2 -2q5 2 12 2h15q27 0 47.5 -16t20.5 -47q0 -32 -27 -54t-70 -22q-23 0 -42.5 5.5t-27.5 11.5zM37 722h272v-84h-172v-226h162v-84h-162v-244h172 v-84h-272v722z" />
<glyph unicode="&#x229;" d="M108 -142q10 -5 20.5 -8.5t27.5 -3.5q26 0 35.5 12t9.5 23q0 17 -13.5 24.5t-24.5 7.5q-24 0 -44 -10l25 97h39l-13 -51l2 -2q5 2 12 2h15q27 0 47.5 -16t20.5 -47q0 -32 -27 -54t-70 -22q-23 0 -42.5 5.5t-27.5 11.5zM30 373q0 64 35 99.5t101 35.5q28 0 53 -6.5 t43.5 -21t29.5 -38.5t11 -59v-162h-179v-107q0 -35 11.5 -47.5t34.5 -12.5q26 0 35.5 17.5t9.5 47.5v46h88v-71q0 -19 -7.5 -37t-24 -32t-43 -22.5t-65.5 -8.5q-27 0 -51 6.5t-42 21t-29 38.5t-11 59v254zM124 287h91v98q0 34 -10.5 48.5t-34.5 14.5q-26 0 -36 -14t-10 -41 v-106z" />
<glyph unicode="&#x22a;" horiz-adv-x="407" d="M72 1011h264v-54h-264v54zM134 167q0 -47 19 -71t50 -24q32 0 51 24t19 71v379q0 104 -70 104q-69 0 -69 -104v-379zM34 538q0 38 7.5 72.5t26 60.5t51.5 41.5t84 15.5q48 0 81 -12t52.5 -35.5t28 -56.5t8.5 -75v-365q0 -38 -7.5 -72.5t-26.5 -60.5t-52 -41.5t-84 -15.5 q-48 0 -80.5 12t-52 35.5t-28 56.5t-8.5 75v365zM88 897h78v-100h-78v100zM242 897h78v-100h-78v100z" />
<glyph unicode="&#x22b;" d="M35 836h264v-54h-264v54zM33 373q0 64 35 99.5t98 35.5q27 0 51.5 -6.5t42.5 -21t29 -38.5t11 -59v-254q0 -64 -35 -99.5t-98 -35.5q-27 0 -51.5 6.5t-42.5 21t-29 38.5t-11 59v254zM127 123q0 -30 8.5 -46.5t31.5 -16.5q22 0 30.5 16.5t8.5 46.5v256q0 30 -8.5 46.5 t-30.5 16.5q-23 0 -31.5 -16.5t-8.5 -46.5v-256zM51 722h78v-100h-78v100zM205 722h78v-100h-78v100z" />
<glyph unicode="&#x22c;" horiz-adv-x="407" d="M192 1017h264v-54h-264v54zM134 167q0 -47 19 -71t50 -24q32 0 51 24t19 71v379q0 104 -70 104q-69 0 -69 -104v-379zM34 538q0 38 7.5 72.5t26 60.5t51.5 41.5t84 15.5q48 0 81 -12t52.5 -35.5t28 -56.5t8.5 -75v-365q0 -38 -7.5 -72.5t-26.5 -60.5t-52 -41.5t-84 -15.5 q-48 0 -80.5 12t-52 35.5t-28 56.5t-8.5 75v365zM57 788q1 17 6 35.5t16 35.5t29 27.5t44 10.5q17 0 33.5 -6t30.5 -12l28 -13q12 -6 21 -6q12 0 21 14.5t11 28.5h54q-1 -17 -6 -36t-16.5 -35t-29 -27t-43.5 -11q-17 0 -33.5 6t-30.5 13l-28 12q-12 6 -21 6q-12 0 -21 -14.5 t-11 -28.5h-54z" />
<glyph unicode="&#x22d;" d="M155 842h264v-54h-264v54zM33 373q0 64 35 99.5t98 35.5q27 0 51.5 -6.5t42.5 -21t29 -38.5t11 -59v-254q0 -64 -35 -99.5t-98 -35.5q-27 0 -51.5 6.5t-42.5 21t-29 38.5t-11 59v254zM127 123q0 -30 8.5 -46.5t31.5 -16.5q22 0 30.5 16.5t8.5 46.5v256q0 30 -8.5 46.5 t-30.5 16.5q-23 0 -31.5 -16.5t-8.5 -46.5v-256zM20 613q1 17 6 35.5t16 35.5t29 27.5t44 10.5q17 0 33.5 -6t30.5 -12l28 -13q12 -6 21 -6q12 0 21 14.5t11 28.5h54q-1 -17 -6 -36t-16.5 -35t-29 -27t-43.5 -11q-17 0 -33.5 6t-30.5 13l-28 12q-12 6 -21 6q-12 0 -21 -14.5 t-11 -28.5h-54z" />
<glyph unicode="&#x22e;" horiz-adv-x="407" d="M164 888h78v-100h-78v100zM134 167q0 -47 19 -71t50 -24q32 0 51 24t19 71v379q0 104 -70 104q-69 0 -69 -104v-379zM34 538q0 38 7.5 72.5t26 60.5t51.5 41.5t84 15.5q48 0 81 -12t52.5 -35.5t28 -56.5t8.5 -75v-365q0 -38 -7.5 -72.5t-26.5 -60.5t-52 -41.5t-84 -15.5 q-48 0 -80.5 12t-52 35.5t-28 56.5t-8.5 75v365z" />
<glyph unicode="&#x22f;" d="M127 668h78v-100h-78v100zM33 373q0 64 35 99.5t98 35.5q27 0 51.5 -6.5t42.5 -21t29 -38.5t11 -59v-254q0 -64 -35 -99.5t-98 -35.5q-27 0 -51.5 6.5t-42.5 21t-29 38.5t-11 59v254zM127 123q0 -30 8.5 -46.5t31.5 -16.5q22 0 30.5 16.5t8.5 46.5v256q0 30 -8.5 46.5 t-30.5 16.5q-23 0 -31.5 -16.5t-8.5 -46.5v-256z" />
<glyph unicode="&#x230;" horiz-adv-x="407" d="M71 1002h264v-54h-264v54zM164 888h78v-100h-78v100zM134 167q0 -47 19 -71t50 -24q32 0 51 24t19 71v379q0 104 -70 104q-69 0 -69 -104v-379zM34 538q0 38 7.5 72.5t26 60.5t51.5 41.5t84 15.5q48 0 81 -12t52.5 -35.5t28 -56.5t8.5 -75v-365q0 -38 -7.5 -72.5 t-26.5 -60.5t-52 -41.5t-84 -15.5q-48 0 -80.5 12t-52 35.5t-28 56.5t-8.5 75v365z" />
<glyph unicode="&#x2c6;" horiz-adv-x="168" d="M45 742h78l98 -145h-72l-65 85l-65 -85h-72z" />
<glyph unicode="&#x2c7;" horiz-adv-x="168" d="M123 597h-78l-98 145h72l65 -85l65 85h72z" />
<glyph unicode="&#x2d8;" horiz-adv-x="168" d="M9 728q3 -26 21 -47q10 -10 23.5 -16.5t30.5 -6.5t30.5 6.5t23 16.5t15 22.5t6.5 24.5h49q-2 -22 -8.5 -44.5t-20.5 -42.5q-14 -19 -37 -31t-58 -12t-58 12t-37 31t-21 42t-8 45h49z" />
<glyph unicode="&#x2d9;" horiz-adv-x="168" d="M45 722h78v-100h-78v100z" />
<glyph unicode="&#x2da;" horiz-adv-x="168" d="M-6 659q0 38 26 64t64 26t64 -26t26 -64t-26 -64t-64 -26t-64 26t-26 64zM40 659q0 -18 13 -31t31 -13t31 13t13 31t-13 31t-31 13t-31 -13t-13 -31z" />
<glyph unicode="&#x2db;" horiz-adv-x="168" d="M280 -188q-11 -6 -28 -11t-37 -5q-51 0 -71 19.5t-20 51.5q0 40 24 82t63 69h46q-34 -42 -47.5 -74t-13.5 -57q0 -20 10.5 -32.5t30.5 -12.5q9 0 17 4t16 9z" />
<glyph unicode="&#x2dc;" horiz-adv-x="168" d="M-63 613q1 17 6 35.5t16 35.5t29 27.5t44 10.5q17 0 33.5 -6t30.5 -12l28 -13q12 -6 21 -6q12 0 21 14.5t11 28.5h54q-1 -17 -6 -36t-16.5 -35t-29 -27t-43.5 -11q-17 0 -33.5 6t-30.5 13l-28 12q-12 6 -21 6q-12 0 -21 -14.5t-11 -28.5h-54z" />
<glyph unicode="&#x2dd;" horiz-adv-x="168" d="M24 742h100l-109 -145h-60zM183 742h100l-109 -145h-60z" />
<glyph unicode="&#x2000;" horiz-adv-x="564" />
<glyph unicode="&#x2001;" horiz-adv-x="1129" />
<glyph unicode="&#x2002;" horiz-adv-x="564" />
<glyph unicode="&#x2003;" horiz-adv-x="1129" />
<glyph unicode="&#x2004;" horiz-adv-x="376" />
<glyph unicode="&#x2005;" horiz-adv-x="282" />
<glyph unicode="&#x2006;" horiz-adv-x="188" />
<glyph unicode="&#x2007;" horiz-adv-x="188" />
<glyph unicode="&#x2008;" horiz-adv-x="141" />
<glyph unicode="&#x2009;" horiz-adv-x="225" />
<glyph unicode="&#x200a;" horiz-adv-x="62" />
<glyph unicode="&#x2010;" horiz-adv-x="296" d="M27 292h242v-78h-242v78z" />
<glyph unicode="&#x2011;" horiz-adv-x="296" d="M27 292h242v-78h-242v78z" />
<glyph unicode="&#x2013;" horiz-adv-x="500" d="M0 286h500v-66h-500v66z" />
<glyph unicode="&#x2014;" horiz-adv-x="1000" d="M0 286h1000v-66h-1000v66z" />
<glyph unicode="&#x2018;" horiz-adv-x="186" d="M85 722h72l-22 -178h-106z" />
<glyph unicode="&#x2019;" horiz-adv-x="186" d="M51 722h106l-56 -178h-72z" />
<glyph unicode="&#x201a;" horiz-adv-x="186" d="M51 118h106l-56 -178h-72z" />
<glyph unicode="&#x201c;" horiz-adv-x="278" d="M78 722h60l-25 -178h-103zM196 722h72l-22 -178h-106z" />
<glyph unicode="&#x201d;" horiz-adv-x="278" d="M35 722h103l-68 -178h-60zM165 722h103l-68 -178h-60z" />
<glyph unicode="&#x201e;" horiz-adv-x="278" d="M162 118h106l-56 -178h-72zM32 118h106l-56 -178h-72z" />
<glyph unicode="&#x2022;" horiz-adv-x="501" d="M70 361q0 37 14 70t38.5 58t57 39t70.5 14q37 0 70 -14t58 -39t39 -58t14 -70q0 -38 -14 -70.5t-39 -57t-58 -38.5t-70 -14q-38 0 -70.5 14t-57 38.5t-38.5 57t-14 70.5z" />
<glyph unicode="&#x2026;" horiz-adv-x="1000" d="M108 118h118v-118h-118v118zM441 118h118v-118h-118v118zM774 118h118v-118h-118v118z" />
<glyph unicode="&#x202f;" horiz-adv-x="225" />
<glyph unicode="&#x2039;" horiz-adv-x="204" d="M106 451h72l-58 -198l58 -198h-72l-80 198z" />
<glyph unicode="&#x203a;" horiz-adv-x="204" d="M84 253l-58 198h72l80 -198l-80 -198h-72z" />
<glyph unicode="&#x205f;" horiz-adv-x="282" />
<glyph unicode="&#x2122;" horiz-adv-x="990" d="M189 656h-125v66h334v-66h-125v-348h-84v348zM466 722h117l113 -296l112 296h118v-414h-78v330h-2l-123 -330h-54l-123 330h-2v-330h-78v414z" />
</font>
</defs>
</svg>
